<?xml version="1.0" standalone="no"?>
<!DOCTYPE svg PUBLIC "-//W3C//DTD SVG 20010904//EN"
 "http://www.w3.org/TR/2001/REC-SVG-20010904/DTD/svg10.dtd">
<svg version="1.0" xmlns="http://www.w3.org/2000/svg"
 width="2572.000000pt" height="2572.000000pt" viewBox="0 0 2572.000000 2572.000000"
 preserveAspectRatio="xMidYMid meet">
<metadata>
Created by potrace 1.14, written by Peter Selinger 2001-2017
</metadata>
<g transform="translate(0.000000,2572.000000) scale(0.100000,-0.100000)"
fill="#000000" stroke="none">
<path d="M11945 25709 c-641 -48 -1272 -140 -1860 -270 -2864 -634 -5413
-2220 -7254 -4514 -1701 -2118 -2675 -4689 -2811 -7414 -13 -263 -13 -989 0
-1252 200 -4020 2231 -7662 5555 -9966 709 -491 1532 -940 2345 -1278 3150
-1312 6730 -1312 9880 0 550 229 1134 523 1635 823 1920 1149 3495 2755 4597
4687 1000 1751 1567 3701 1668 5734 13 263 13 989 0 1252 -78 1571 -434 3091
-1055 4515 -1527 3496 -4556 6157 -8208 7209 -879 253 -1743 406 -2682 475
-165 12 -1647 11 -1810 -1z m1340 -189 c1670 -61 3204 -414 4726 -1086 199
-89 699 -337 904 -449 2098 -1150 3818 -2854 4990 -4945 120 -214 356 -679
454 -895 506 -1109 842 -2254 1015 -3455 169 -1171 169 -2440 0 -3610 -513
-3557 -2504 -6710 -5504 -8715 -711 -475 -1495 -890 -2290 -1210 -2597 -1048
-5501 -1198 -8210 -423 -547 156 -1095 355 -1635 594 -243 107 -770 369 -995
495 -1714 956 -3165 2269 -4272 3864 -1198 1727 -1939 3703 -2172 5795 -117
1048 -100 2172 50 3210 241 1668 807 3260 1671 4698 1095 1821 2637 3345 4473
4419 464 271 1020 548 1524 758 1654 688 3487 1020 5271 955z"/>
<path d="M12805 25016 l-310 -32 -3 -40 -3 -40 59 -17 c82 -23 118 -55 138
-125 16 -52 16 -125 5 -897 -15 -985 -21 -1137 -47 -1192 -24 -47 -69 -78
-140 -94 l-54 -12 0 -47 0 -47 421 -7 c232 -3 423 -5 425 -4 1 2 4 23 6 47 l3
43 -62 19 c-81 25 -118 62 -134 136 -12 54 -6 739 18 2011 4 198 3 331 -3 331
-5 -1 -148 -16 -319 -33z m129 -288 c-3 -106 -11 -613 -20 -1127 -14 -927 -14
-934 5 -967 l20 -34 -100 0 -100 0 22 31 22 31 17 1055 c9 580 14 1067 11
1081 -8 35 -20 53 -54 79 l-27 21 87 7 c49 3 93 8 98 10 6 2 13 4 17 4 4 1 5
-86 2 -191z"/>
<path d="M10279 24775 c-128 -20 -183 -36 -529 -150 -340 -112 -472 -148 -734
-200 -92 -19 -170 -35 -171 -37 -2 -2 1 -24 7 -49 l11 -46 96 -5 c150 -7 245
-58 296 -158 36 -71 63 -170 255 -940 204 -815 213 -867 170 -967 -27 -64
-107 -142 -185 -180 l-57 -28 7 -40 c3 -22 10 -44 15 -49 5 -5 263 55 618 144
l609 152 -11 46 -12 47 -120 1 c-214 2 -313 60 -375 222 -21 58 -189 704 -189
732 0 12 57 30 238 74 581 144 805 271 923 521 88 187 83 416 -14 600 -49 94
-157 196 -259 245 -156 75 -372 99 -589 65z m322 -151 c191 -56 320 -189 364
-376 43 -182 -6 -356 -140 -496 l-64 -67 29 58 c16 31 36 92 46 134 33 149 -1
370 -79 517 -39 73 -123 166 -192 212 -55 38 -46 42 36 18z m-179 -61 c46 -23
103 -61 127 -84 104 -101 169 -254 178 -421 15 -259 -86 -418 -329 -520 -61
-26 -448 -132 -455 -125 -10 11 -193 777 -198 833 -18 176 76 287 287 344 58
16 98 19 190 17 114 -3 119 -4 200 -44z m-829 -135 c-51 -57 -73 -103 -73
-150 0 -42 422 -1764 467 -1903 20 -63 45 -92 106 -120 l47 -22 -180 -45 c-99
-25 -177 -40 -173 -34 4 6 20 29 35 50 19 27 28 51 28 77 0 64 -474 1942 -498
1977 -21 28 -49 46 -117 72 -28 11 -21 14 120 51 83 21 170 45 195 53 62 20
67 19 43 -6z"/>
<path d="M15439 24703 c-9 -28 -9 -38 0 -41 33 -11 106 -72 123 -102 37 -67
28 -104 -267 -1069 -151 -496 -285 -922 -296 -945 -45 -89 -102 -121 -203
-114 l-50 3 -13 -44 c-7 -25 -12 -45 -10 -46 8 -7 809 -247 811 -244 5 6 26
71 26 80 0 4 -20 19 -45 33 -24 15 -57 43 -72 63 -49 64 -43 106 88 536 l114
378 92 55 c189 113 290 149 400 142 175 -10 254 -122 219 -309 -15 -80 -220
-768 -252 -844 -22 -55 -59 -102 -94 -120 -18 -9 -56 -15 -98 -15 l-69 0 -12
-41 c-7 -23 -9 -45 -4 -48 7 -6 771 -240 797 -245 14 -2 41 87 27 92 -33 11
-106 72 -123 102 -33 59 -20 130 90 490 121 395 120 390 132 485 34 269 -132
505 -405 575 -167 43 -312 19 -518 -84 -89 -45 -126 -59 -123 -47 3 9 89 292
192 629 102 337 184 616 180 619 -6 7 -570 112 -603 113 -16 0 -24 -9 -34 -37z
m369 -134 c48 -10 52 -13 46 -32 -118 -371 -644 -2119 -644 -2140 0 -15 5 -37
10 -48 6 -10 9 -19 7 -19 -5 0 -169 49 -187 56 -11 4 -9 9 11 19 14 8 33 31
42 52 30 68 617 2007 617 2038 0 17 -11 47 -24 66 l-25 36 47 -8 c26 -5 71
-14 100 -20z m684 -1274 c33 -36 66 -110 77 -171 17 -90 -1 -169 -132 -600
-139 -454 -138 -451 -122 -496 l12 -35 -76 24 c-42 13 -89 26 -104 30 l-29 6
31 19 c37 24 34 16 171 467 139 455 153 513 154 626 1 80 -2 96 -27 145 l-29
55 28 -25 c15 -14 36 -34 46 -45z"/>
<path d="M11715 24697 c-126 -60 -173 -209 -107 -338 87 -172 342 -169 427 5
24 48 27 65 23 125 -3 54 -10 78 -34 117 -64 104 -199 143 -309 91z m100 -109
c9 -54 23 -242 18 -250 -16 -28 -102 13 -133 64 -40 66 -16 156 52 198 45 27
56 25 63 -12z"/>
<path d="M11753 23958 l-293 -61 0 -28 c0 -44 10 -59 39 -59 90 0 159 -53 185
-141 21 -70 100 -935 91 -1005 -11 -88 -59 -141 -150 -165 l-40 -10 3 -50 4
-49 61 6 c34 3 224 20 422 38 l360 31 3 47 3 47 -48 6 c-107 15 -159 62 -182
166 -6 25 -33 301 -60 614 -65 732 -58 675 -84 674 -12 0 -154 -28 -314 -61z
m157 -91 c0 -39 111 -1228 116 -1242 4 -11 16 -30 27 -42 l20 -23 -30 0 c-16
0 -65 -3 -108 -7 l-78 -6 23 31 23 31 -50 569 c-28 314 -56 579 -62 590 -6 11
-28 31 -48 43 l-38 24 80 16 c76 16 125 22 125 16z"/>
<path d="M14130 23959 c-94 -14 -234 -64 -315 -111 -96 -56 -237 -201 -294
-301 -241 -427 -115 -923 284 -1113 122 -58 211 -77 375 -78 129 -1 153 2 219
23 41 14 112 48 158 75 91 56 253 182 253 197 0 5 -13 29 -28 54 l-28 45 -59
-51 c-85 -71 -184 -136 -257 -167 -87 -36 -225 -38 -310 -3 -174 69 -280 277
-280 551 0 349 125 645 314 739 136 69 302 24 349 -94 6 -16 15 -95 19 -175 8
-164 23 -208 85 -256 38 -28 111 -42 160 -30 40 10 102 73 121 122 25 65 16
175 -21 251 -63 130 -238 259 -412 303 -92 24 -244 33 -333 19z m-328 -281
c-89 -118 -143 -285 -163 -499 -13 -141 -1 -266 37 -378 32 -95 64 -149 133
-224 59 -65 58 -65 -30 -6 -114 77 -208 214 -246 359 -24 93 -22 261 6 365 44
165 124 295 240 392 36 29 66 53 68 53 1 0 -19 -28 -45 -62z m904 -95 c19 -39
26 -68 26 -113 0 -64 -12 -90 -43 -90 -28 0 -37 33 -46 180 l-8 131 23 -28
c12 -15 34 -51 48 -80z"/>
<path d="M6974 23559 c-56 -16 -126 -71 -152 -119 -19 -37 -23 -56 -20 -107 6
-93 38 -134 157 -197 127 -69 136 -82 136 -206 0 -97 0 -99 25 -104 14 -2 33
-8 42 -11 14 -5 22 12 51 102 95 296 81 489 -43 596 -58 49 -128 66 -196 46z
m66 -188 c25 -26 42 -57 53 -98 28 -98 27 -99 -55 -54 -95 51 -128 83 -128
123 0 76 71 91 130 29z"/>
<path d="M17167 23116 l-16 -35 39 -31 c54 -43 84 -108 75 -162 -11 -62 -30
-102 -210 -437 -169 -316 -212 -418 -222 -524 -25 -283 222 -543 539 -564 103
-7 209 8 325 46 46 15 83 26 83 24 0 -2 -27 -53 -60 -115 -33 -62 -59 -116
-57 -121 3 -10 531 -297 546 -297 5 0 19 16 31 36 l23 35 -42 40 c-60 58 -74
92 -68 159 6 67 -5 46 343 697 151 281 274 515 274 520 -1 8 -566 234 -585
233 -6 0 -19 -14 -29 -31 l-18 -31 39 -37 c59 -54 75 -84 75 -140 -1 -65 -10
-84 -214 -468 l-172 -322 -101 -35 c-205 -72 -324 -85 -429 -46 -140 53 -178
181 -106 352 24 56 436 834 531 1005 l29 51 -291 116 c-161 64 -297 116 -304
116 -6 0 -19 -16 -28 -34z m333 -202 c25 -9 47 -18 48 -20 2 -1 -99 -195 -225
-431 -300 -560 -316 -598 -317 -732 l0 -74 -24 54 c-52 118 -52 218 1 348 14
34 111 222 215 419 105 196 194 369 197 383 4 18 0 40 -14 68 l-21 41 47 -19
c27 -10 68 -27 93 -37z m946 -510 c49 -20 90 -37 91 -38 2 -1 -106 -205 -238
-452 -348 -650 -353 -658 -346 -699 l6 -35 -71 36 c-55 28 -68 39 -63 52 3 9
118 226 254 482 137 256 261 488 275 517 30 60 33 101 11 143 -9 17 -14 30
-12 30 2 0 43 -16 93 -36z"/>
<path d="M6037 22921 c-130 -111 -239 -205 -242 -211 -8 -13 26 -70 41 -70 6
0 28 7 47 15 20 8 58 15 85 15 58 0 97 -23 152 -90 52 -62 1036 -1532 1072
-1601 54 -102 48 -151 -28 -245 l-33 -41 25 -37 c15 -22 30 -34 37 -29 7 3
166 110 355 235 l343 229 -18 30 c-28 48 -34 50 -102 28 -87 -27 -120 -19
-186 45 -39 37 -228 311 -676 981 -342 512 -625 934 -629 938 -4 5 -114 -82
-243 -192z m773 -946 c331 -495 616 -914 633 -932 16 -18 41 -33 55 -35 22 -3
13 -11 -61 -60 -48 -32 -90 -58 -93 -58 -3 0 -3 11 0 24 4 17 -4 43 -27 84
-46 84 -1123 1691 -1159 1729 -21 21 -45 34 -75 40 l-46 8 74 62 c56 46 77 58
85 50 7 -7 283 -417 614 -912z"/>
<path d="M5410 22138 c-76 -46 -113 -108 -118 -197 -3 -57 0 -73 25 -121 85
-161 280 -183 401 -45 97 110 72 270 -56 360 -38 26 -54 30 -120 33 -72 3 -80
1 -132 -30z m125 -200 c47 -57 85 -108 85 -115 0 -19 -35 -33 -83 -33 -84 0
-152 73 -144 156 4 40 31 94 48 94 5 0 47 -46 94 -102z"/>
<path d="M19130 21806 c-319 -67 -586 -310 -672 -613 -32 -112 -32 -279 1
-383 12 -41 35 -99 51 -130 94 -186 310 -363 510 -417 78 -21 273 -23 395 -4
121 19 115 14 115 78 l0 56 -52 -7 c-29 -4 -93 -11 -143 -17 -427 -46 -646
261 -474 664 74 174 258 396 413 496 173 113 351 122 465 24 55 -46 81 -99 81
-163 0 -53 -8 -73 -95 -233 -40 -75 -47 -96 -48 -145 0 -91 49 -159 132 -182
69 -18 132 4 193 67 108 112 115 305 18 492 -104 200 -287 341 -526 407 -80
22 -281 27 -364 10z m67 -120 c-101 -42 -168 -88 -261 -181 -146 -145 -259
-327 -302 -485 -22 -82 -23 -245 -1 -312 8 -27 13 -48 10 -48 -8 0 -65 130
-79 182 -18 71 -18 225 1 300 70 268 303 495 570 553 33 7 74 14 90 14 25 0
20 -3 -28 -23z m723 -502 c0 -72 -26 -150 -64 -191 -28 -31 -35 -34 -54 -24
-12 6 -22 17 -23 24 -1 22 126 262 133 252 4 -5 8 -33 8 -61z"/>
<path d="M21106 21724 l-29 -25 27 -53 c51 -100 44 -154 -31 -237 -29 -32
-923 -861 -1356 -1256 -72 -66 -152 -113 -192 -113 -32 0 -128 41 -139 59 -11
17 -28 13 -65 -18 l-34 -28 287 -312 c158 -171 290 -311 292 -311 3 0 20 12
39 27 l33 27 -29 58 c-60 119 -35 175 156 352 l122 112 84 -9 c46 -5 86 -11
87 -12 9 -8 -111 -565 -130 -603 -27 -57 -56 -68 -112 -44 -23 11 -59 34 -80
52 l-37 33 -34 -34 -35 -34 336 -365 c185 -201 338 -367 340 -369 2 -3 19 10
38 28 l33 32 -36 71 -36 71 1 131 c1 121 7 164 82 550 45 230 83 421 86 424 3
3 101 -7 217 -22 303 -39 422 -73 527 -150 l58 -43 36 32 37 31 -255 277 -255
277 -35 -28 c-19 -15 -34 -30 -34 -35 0 -4 15 -30 34 -57 82 -119 49 -180 -98
-180 -56 0 -664 66 -694 76 -7 2 283 276 645 610 362 333 659 609 661 613 2 6
-472 422 -480 421 -2 0 -16 -12 -32 -26z m219 -280 l70 -64 -31 -28 c-17 -15
-390 -357 -828 -761 -673 -621 -798 -740 -807 -771 l-11 -38 -67 70 c-36 39
-67 74 -69 79 -2 5 12 9 32 9 26 0 46 10 79 38 141 123 1536 1414 1541 1428 3
8 6 36 6 60 0 24 3 44 8 44 4 -1 39 -30 77 -66z m-46 -1428 l33 -34 -43 5
c-24 3 -45 7 -47 8 -2 2 19 55 23 55 0 0 16 -15 34 -34z m-703 -58 c2 -3 -27
-167 -67 -364 -39 -198 -76 -406 -82 -462 l-12 -104 -93 100 -92 100 35 22
c62 39 88 113 152 435 l56 287 49 -4 c27 -3 51 -7 54 -10z"/>
<path d="M5781 21479 l-224 -229 26 -34 26 -33 51 25 c29 14 70 26 94 26 84 2
116 -29 414 -394 150 -184 290 -361 312 -393 71 -105 72 -164 4 -252 l-34 -46
27 -34 c16 -20 33 -33 40 -31 14 6 640 513 647 525 3 4 -7 23 -23 41 l-28 34
-49 -21 c-82 -35 -109 -37 -158 -13 -61 29 -96 69 -505 575 -200 248 -371 457
-380 466 -15 15 -34 -3 -240 -212z m539 -464 c205 -253 382 -470 395 -483 12
-13 38 -29 57 -36 l36 -12 -82 -65 -81 -66 -1 39 c-1 28 -11 51 -35 81 -153
192 -671 826 -687 841 -12 10 -41 21 -66 23 l-45 6 61 69 c34 37 65 67 69 66
4 -2 175 -210 379 -463z"/>
<path d="M3579 20714 c-222 -245 -405 -451 -407 -459 -2 -7 13 -25 32 -40 l36
-27 56 37 c75 50 150 75 227 75 77 0 134 -26 227 -103 147 -122 1192 -1081
1230 -1129 104 -131 112 -229 33 -386 l-36 -73 36 -37 c20 -20 38 -34 40 -31
2 2 315 347 695 766 l692 762 -217 353 c-119 194 -218 355 -220 357 -2 3 -20
-11 -39 -31 l-36 -36 16 -98 c62 -379 43 -692 -55 -887 -45 -88 -84 -142 -158
-220 -160 -167 -271 -184 -429 -64 -95 71 -1210 1085 -1260 1144 -113 137
-119 249 -21 432 43 79 42 83 -11 121 l-26 19 -405 -445z m187 -62 c-1 -68 3
-94 17 -115 14 -22 652 -606 1392 -1275 96 -87 115 -96 193 -89 l63 5 -18 -22
c-10 -11 -63 -70 -118 -131 -54 -60 -102 -114 -106 -118 -3 -5 -4 14 -1 42 6
64 -2 92 -35 132 -23 27 -1161 1067 -1403 1282 -83 73 -113 82 -207 64 l-72
-14 78 86 c43 47 109 121 147 163 38 42 69 77 70 78 0 0 0 -40 0 -88z m2394
-509 c29 -49 54 -91 56 -94 2 -4 -29 -42 -68 -85 -47 -52 -69 -70 -64 -54 4
14 10 91 13 173 3 81 7 147 8 147 1 0 26 -39 55 -87z"/>
<path d="M5877 19303 c-51 -27 -119 -164 -139 -283 -21 -128 -21 -336 0 -521
20 -169 20 -231 0 -256 -8 -10 -22 -6 -60 13 -118 60 -314 108 -393 97 -25 -3
-45 -8 -45 -11 0 -3 15 -19 34 -36 38 -34 50 -63 36 -85 -7 -13 -13 -13 -37
-2 -15 8 -75 16 -133 18 -67 3 -113 10 -128 19 -21 14 -23 13 -28 -15 -5 -24
-13 -31 -38 -36 -98 -19 -127 -29 -124 -44 3 -11 15 -16 41 -15 28 1 37 -3 37
-15 0 -10 5 -22 12 -29 8 -8 8 -15 -2 -27 -21 -25 -57 -40 -155 -65 -49 -12
-94 -26 -100 -31 -5 -4 -14 -8 -20 -9 -46 -5 -54 -13 -64 -60 -6 -27 -28 -86
-50 -132 -70 -146 -156 -268 -388 -547 -65 -78 -275 -278 -358 -342 -93 -71
-353 -331 -366 -367 -8 -20 -127 -113 -182 -143 -69 -37 -222 -162 -262 -215
-54 -71 -68 -149 -38 -207 37 -71 49 -168 33 -277 -18 -128 -8 -142 126 -179
67 -18 121 -65 180 -157 59 -91 99 -124 225 -182 147 -69 136 -67 220 -34 41
16 103 37 139 46 36 10 81 21 101 27 74 19 184 10 327 -25 75 -19 155 -38 177
-42 22 -4 48 -11 58 -16 69 -35 473 -50 607 -22 41 8 89 17 105 20 23 4 585
13 995 16 79 1 216 -51 325 -121 86 -56 210 -168 285 -260 l53 -64 23 51 c14
32 33 56 51 65 15 8 37 24 47 36 28 30 45 26 63 -16 l15 -38 19 24 c10 13 19
33 19 46 0 30 23 50 37 33 18 -23 25 -52 33 -138 8 -80 7 -86 -13 -102 -19
-14 -22 -27 -22 -85 0 -77 -9 -101 -31 -82 -19 16 -24 9 -13 -18 5 -15 17 -23
32 -23 14 0 29 -6 34 -12 15 -20 46 -146 38 -157 -3 -6 -1 -11 5 -11 6 0 13
-8 17 -17 3 -10 30 -47 58 -83 75 -92 134 -187 203 -325 54 -108 63 -121 96
-133 20 -7 43 -26 53 -43 9 -16 20 -29 24 -29 17 0 -67 122 -96 140 -34 21
-85 104 -85 139 0 40 31 22 56 -34 21 -44 30 -55 49 -55 24 0 24 0 7 30 -9 16
-20 30 -23 30 -11 0 -89 108 -89 123 0 15 31 47 46 47 17 0 84 -61 84 -77 0
-9 -7 -21 -16 -28 -21 -15 -8 -40 21 -40 15 0 21 -9 26 -35 10 -58 29 -93 68
-131 20 -20 42 -51 47 -69 12 -43 31 -49 44 -15 6 17 16 25 27 23 16 -3 18 6
18 72 0 82 20 130 54 130 14 0 20 -10 25 -39 4 -24 15 -46 28 -55 17 -12 19
-18 9 -30 -7 -8 -14 -37 -17 -65 -2 -28 -9 -62 -14 -76 -5 -14 -7 -32 -4 -40
7 -17 34 -21 34 -5 0 6 5 10 10 10 6 0 10 -7 10 -16 0 -11 6 -14 21 -9 29 10
39 -9 39 -76 l0 -56 39 -6 c21 -2 50 -13 65 -22 23 -15 26 -22 20 -53 -7 -33
-6 -35 20 -30 25 5 26 3 26 -34 l0 -40 19 23 c26 32 35 20 22 -28 -18 -62 -14
-103 8 -103 20 0 31 18 31 51 0 44 18 6 22 -49 3 -32 15 -77 27 -100 26 -51
26 -56 1 -49 -16 4 -23 -2 -34 -26 -16 -40 -41 -63 -51 -47 -4 6 -18 15 -31
20 -14 6 -24 18 -24 30 0 26 -4 25 -34 -5 -14 -14 -32 -25 -41 -25 -26 0 -16
-19 25 -48 21 -15 39 -32 40 -38 0 -6 12 -21 26 -35 54 -51 123 -169 150 -257
37 -121 235 -602 249 -602 15 0 18 117 4 153 -8 19 -9 35 -2 50 6 12 8 37 6
55 -5 29 -8 32 -41 32 l-35 0 6 60 c4 33 14 74 23 91 15 29 14 32 -5 53 -19
20 -20 29 -13 89 8 66 30 106 50 93 5 -3 16 -26 23 -52 14 -46 61 -94 93 -94
10 0 16 -9 16 -24 0 -27 16 -43 23 -24 10 30 19 -5 10 -37 -9 -28 -8 -38 3
-49 8 -8 14 -24 14 -35 0 -12 18 -39 39 -62 l40 -40 45 42 c41 37 46 46 46 85
0 32 4 44 15 44 11 0 15 11 15 38 0 41 23 82 46 82 18 0 18 -21 -1 -89 -15
-59 -12 -79 11 -60 23 19 18 -24 -7 -55 -22 -29 -19 -56 6 -56 9 0 20 10 25
23 7 17 9 18 9 5 1 -27 20 -22 31 8 8 20 16 25 38 22 25 -3 27 0 30 40 2 23 6
42 10 42 17 -1 30 -18 42 -55 18 -59 28 -63 45 -22 19 46 19 72 0 101 -14 21
-13 24 4 40 17 16 19 15 36 -10 16 -25 16 -32 -1 -135 -11 -65 -23 -109 -30
-109 -8 0 -12 -36 -12 -119 -1 -102 -4 -126 -22 -162 -18 -34 -19 -41 -6 -36
22 9 32 -14 13 -28 -10 -7 -17 -22 -17 -34 0 -32 -27 -90 -45 -97 -20 -8 -19
-23 2 -46 15 -16 15 -25 5 -64 -13 -49 -8 -69 14 -60 8 3 14 0 14 -6 0 -6 6
-6 16 3 10 8 14 22 11 38 -4 17 1 33 15 47 11 13 22 44 27 77 6 46 13 60 41
83 18 16 43 51 55 79 31 69 48 83 69 53 9 -12 16 -29 16 -38 0 -8 9 -30 21
-49 23 -38 19 -72 -6 -51 -12 10 -16 7 -26 -16 -6 -16 -19 -47 -29 -69 -9 -22
-22 -51 -27 -65 l-10 -25 -12 22 c-10 19 -7 30 14 70 23 45 26 93 5 93 -11 0
-40 -99 -40 -134 0 -19 -5 -26 -19 -26 -13 0 -30 -21 -56 -67 -32 -58 -86
-123 -102 -123 -3 0 -11 8 -18 17 -11 15 -14 13 -29 -16 -14 -26 -20 -30 -32
-20 -12 10 -14 5 -14 -27 -1 -81 -52 -173 -113 -205 -22 -12 -44 -34 -54 -54
l-16 -34 55 -69 c69 -85 87 -134 97 -276 5 -61 16 -128 24 -148 9 -21 55 -87
103 -147 l88 -110 24 20 c35 27 57 24 118 -16 39 -26 60 -34 78 -29 20 5 27 0
40 -25 9 -17 25 -35 36 -41 11 -6 20 -20 20 -30 0 -27 9 -25 42 7 l27 26 45
-41 c25 -23 53 -42 62 -42 10 0 32 11 50 25 18 14 35 25 38 25 12 0 5 -28 -9
-40 -21 -17 -19 -27 10 -55 28 -29 61 -32 87 -8 10 9 18 11 18 5 0 -6 -4 -14
-10 -17 -5 -3 -10 -23 -10 -44 0 -28 -7 -43 -26 -60 -14 -12 -24 -26 -22 -32
2 -5 38 -25 80 -43 101 -44 223 -116 309 -183 64 -49 73 -53 108 -47 28 4 38
10 34 20 -3 8 4 31 15 53 11 21 18 48 16 59 -7 23 39 64 62 55 20 -7 18 -21
-11 -55 -37 -44 -34 -60 8 -34 15 10 39 12 75 9 l54 -6 -7 -47 c-5 -35 -3 -49
9 -59 12 -10 18 -9 35 8 12 12 28 21 36 21 11 0 13 10 8 48 -5 41 -2 52 21 79
20 24 26 42 26 80 0 60 17 113 35 113 8 0 30 20 50 45 31 37 40 43 56 34 11
-5 19 -20 19 -36 0 -22 -4 -25 -25 -21 -14 3 -27 2 -30 -1 -2 -4 4 -45 13 -90
15 -72 21 -87 49 -108 l32 -25 7 61 c9 84 18 93 73 78 36 -10 45 -10 49 1 2 8
17 28 32 46 25 28 27 34 15 56 -13 24 -11 40 4 40 5 0 20 -18 34 -39 21 -31
32 -39 53 -38 22 2 32 -6 54 -43 17 -29 34 -46 50 -48 21 -3 22 -1 16 30 -3
18 -15 45 -26 60 -29 39 -25 48 20 48 24 0 40 -5 40 -12 0 -17 41 -98 49 -98
4 0 7 10 7 22 -1 13 6 24 16 26 12 2 26 -14 48 -57 17 -34 31 -61 33 -61 1 0
3 19 4 43 1 28 -5 48 -18 62 -26 29 -51 94 -44 114 5 13 9 12 25 -9 10 -14 22
-21 26 -17 13 13 -25 77 -51 87 -17 6 -25 17 -25 33 0 12 -7 33 -16 45 -14 20
-14 24 0 44 9 12 16 41 16 63 0 23 6 50 14 61 14 18 15 18 21 -9 4 -16 3 -39
-4 -53 -6 -14 -11 -47 -11 -74 0 -41 4 -51 23 -61 12 -6 36 -27 53 -46 27 -32
33 -34 52 -24 20 11 22 17 16 62 -5 40 -3 53 11 69 27 30 23 128 -9 220 -31
88 -31 90 -6 90 13 0 22 -10 28 -32 l10 -33 21 48 c29 62 44 67 84 29 18 -16
50 -39 73 -50 22 -12 55 -37 72 -56 32 -36 59 -48 49 -22 -12 31 -19 86 -11
86 19 0 34 -17 46 -54 7 -21 24 -46 38 -55 l25 -16 -23 32 c-12 17 -22 36 -22
42 0 16 21 14 40 -4 14 -12 19 -13 34 -2 17 12 15 16 -23 46 -50 39 -56 76
-15 91 28 11 28 12 0 85 -8 22 -15 56 -16 76 0 30 3 35 22 35 18 -1 26 9 42
52 18 50 18 55 3 88 -21 43 -21 54 -3 54 26 0 27 18 6 89 -26 85 -24 125 7
129 l21 3 -19 42 c-10 23 -19 53 -19 67 0 14 -7 36 -15 50 -8 14 -14 39 -15
56 0 17 -6 37 -14 43 -8 7 -14 26 -14 42 1 27 2 29 22 16 11 -8 24 -31 28 -52
9 -43 26 -68 39 -59 18 11 8 42 -31 101 -40 59 -55 110 -35 114 6 1 18 -14 27
-33 9 -19 23 -40 32 -47 32 -27 15 14 -53 128 -38 63 -67 120 -64 128 6 15 53
18 53 3 0 -6 12 -16 28 -22 15 -7 47 -30 71 -51 39 -35 45 -38 53 -23 7 13 17
16 34 12 l25 -7 -28 42 c-25 38 -28 40 -33 20 -3 -12 -9 -22 -15 -22 -14 0
-18 37 -8 56 6 11 0 34 -19 73 -31 63 -41 132 -20 139 8 3 16 -4 19 -16 9 -36
19 -23 15 20 -4 40 -4 41 18 29 12 -6 31 -10 41 -7 23 6 36 -10 20 -26 -16
-16 -13 -42 10 -82 18 -30 19 -34 4 -29 -14 6 -15 2 -10 -30 5 -23 3 -41 -5
-50 -9 -11 -8 -20 2 -38 12 -22 13 -20 22 34 9 56 19 67 62 68 6 0 37 -52 69
-116 33 -64 65 -118 72 -121 7 -3 13 -18 13 -35 0 -18 4 -27 10 -23 16 10 2
95 -21 127 -24 34 -24 39 4 63 l22 20 -23 3 c-12 2 -28 15 -36 30 -8 15 -24
36 -36 47 -29 27 -89 150 -80 165 5 8 18 10 32 7 17 -5 32 -24 53 -68 18 -37
45 -73 68 -91 49 -39 61 -69 46 -117 -10 -32 -8 -43 16 -92 l26 -56 37 12 c20
7 37 19 37 27 1 40 41 44 47 5 2 -12 4 27 3 87 0 94 2 110 18 120 15 9 23 5
48 -22 16 -18 29 -41 29 -52 0 -50 70 -160 101 -160 28 0 29 13 4 56 -30 51
-31 63 -7 103 23 42 32 39 32 -12 0 -37 6 -48 38 -80 26 -26 44 -36 55 -31 21
8 21 14 2 50 -16 31 -21 114 -7 114 13 0 42 -68 52 -122 11 -56 46 -108 73
-108 10 0 27 -5 38 -10 17 -10 19 -7 19 35 0 25 3 45 7 45 4 0 24 -17 45 -37
36 -35 39 -36 51 -18 10 12 19 15 28 9 8 -5 21 -9 29 -9 8 0 21 -17 28 -40 7
-22 18 -43 25 -47 6 -4 12 -29 13 -55 1 -26 5 -60 9 -75 6 -23 4 -28 -10 -28
-15 0 -17 -6 -11 -47 7 -53 50 -153 65 -153 20 0 22 46 7 120 -19 91 -19 90
-2 90 7 0 16 -9 19 -19 3 -14 11 -18 26 -14 25 6 26 21 7 68 -13 29 -13 35 0
46 20 16 54 -15 54 -50 0 -14 13 -51 30 -81 35 -66 36 -73 10 -65 -24 8 -26
-5 -5 -45 20 -39 36 -38 28 1 -5 25 -3 31 8 27 8 -2 15 -18 17 -34 6 -58 23
-104 38 -104 8 0 19 -12 25 -27 21 -56 87 -146 101 -137 5 3 5 11 -2 18 -5 7
-15 48 -20 91 -7 55 -19 95 -44 141 -28 53 -31 64 -16 59 12 -4 27 3 43 21
l25 27 31 -33 c16 -18 44 -60 61 -92 35 -64 49 -73 25 -15 -34 82 -9 90 40 12
43 -66 75 -80 105 -44 11 13 24 30 30 37 16 18 82 -34 78 -62 -4 -31 10 -46
40 -46 24 0 31 -9 59 -71 25 -54 36 -70 48 -65 9 3 34 -6 57 -20 27 -17 48
-24 64 -20 32 8 86 -16 107 -48 10 -14 26 -26 37 -26 10 0 22 -4 25 -10 11
-17 25 -11 25 10 0 11 -7 23 -15 26 -11 5 -13 16 -9 44 5 28 2 38 -10 43 -8 3
-31 37 -50 74 -20 37 -43 80 -53 95 -9 15 -14 30 -11 34 14 13 38 -7 74 -61
24 -36 41 -52 47 -46 6 6 1 20 -15 40 -14 16 -34 52 -44 80 -19 53 -28 62 -38
36 -9 -23 -24 -18 -41 15 -25 48 -20 70 15 70 29 0 30 1 30 50 0 28 -7 64 -15
80 -9 17 -11 30 -6 30 17 0 61 -61 61 -85 0 -12 7 -28 16 -36 9 -7 29 -38 44
-68 16 -31 39 -67 50 -81 l22 -25 -6 51 c-11 91 30 140 78 95 12 -12 28 -21
34 -21 18 0 14 48 -4 58 -9 5 -14 14 -10 21 14 22 36 10 56 -29 16 -31 26 -40
46 -40 25 0 28 4 38 52 4 15 15 32 26 38 16 8 23 4 46 -26 25 -33 26 -37 11
-46 -28 -15 -3 -51 31 -45 21 4 37 -6 87 -54 85 -81 115 -81 53 1 -58 75 -99
152 -92 172 4 13 -5 28 -30 50 -20 17 -36 40 -36 49 0 10 -9 24 -20 32 -13 9
-18 20 -14 31 8 21 32 20 57 -1 19 -17 20 -17 15 5 -8 30 12 29 41 -2 13 -13
33 -27 44 -30 27 -6 49 -40 41 -61 -8 -21 -52 -19 -94 5 -28 17 -31 17 -15 3
11 -10 28 -30 38 -45 9 -16 26 -28 36 -28 10 0 26 -9 36 -20 26 -29 32 -25 31
16 -1 47 17 54 34 14 14 -34 13 -34 63 -17 l37 13 -73 72 c-60 57 -78 70 -97
65 -21 -6 -22 -4 -15 35 3 23 17 70 29 106 l23 66 28 -27 c44 -44 57 -77 43
-108 -10 -23 -9 -29 15 -52 l26 -27 -8 30 c-6 22 -4 34 9 49 17 19 17 23 -11
105 -17 47 -33 97 -36 113 -3 18 -13 29 -29 33 -24 6 -34 34 -13 34 31 0 185
-181 200 -234 6 -22 24 -46 44 -62 27 -20 35 -34 35 -59 0 -18 8 -39 18 -48
22 -20 42 -22 42 -5 0 6 11 1 25 -12 l25 -23 0 41 c0 30 -4 42 -14 42 -19 0
-29 17 -19 33 4 6 6 22 4 35 -4 31 10 28 55 -13 37 -35 67 -44 79 -25 3 5 0
18 -7 29 -9 15 -9 23 0 34 10 11 9 17 -3 27 -8 7 -15 21 -15 32 0 16 5 19 25
14 24 -6 25 -5 19 39 -6 41 -5 45 20 54 30 12 32 20 11 47 -19 26 -19 53 2 61
11 4 25 -4 45 -28 l29 -34 20 24 c17 21 19 35 15 90 -3 36 -10 91 -15 121 -6
30 -14 89 -17 130 -5 49 -13 83 -25 98 -15 19 -16 28 -6 49 10 22 8 28 -11 43
-12 10 -22 23 -22 29 0 15 34 31 64 31 18 0 26 5 26 17 0 9 9 27 21 39 l21 22
-24 16 c-27 18 -131 46 -169 46 -16 0 -39 12 -59 31 -29 28 -37 31 -76 26 -37
-4 -46 -1 -55 14 -5 11 -20 19 -34 19 -28 0 -39 13 -30 39 3 12 17 21 33 23
20 2 32 13 45 41 12 25 28 42 47 49 33 11 35 20 19 67 -13 37 -17 37 -69 11
-44 -23 -90 -26 -108 -8 -17 17 -15 25 11 32 l22 6 -21 14 c-11 8 -32 18 -46
21 -20 5 -26 2 -31 -15 -8 -29 -41 -22 -45 9 -3 18 7 34 37 62 23 22 41 41 41
43 0 2 -10 6 -22 9 -18 5 -19 8 -9 21 11 13 10 17 -5 22 -11 4 -58 22 -106 40
-66 26 -103 34 -150 34 -77 0 -124 22 -155 70 -28 45 -53 73 -60 67 -2 -3 5
-15 17 -27 29 -29 12 -50 -23 -27 -13 8 -42 21 -65 28 -34 10 -42 17 -42 36 0
18 6 23 28 24 27 0 27 1 5 11 -27 13 -28 21 -8 38 21 17 63 7 152 -35 76 -37
83 -47 58 -75 -27 -29 10 -49 111 -61 54 -6 101 -17 121 -29 18 -11 39 -17 47
-14 7 3 21 -6 30 -20 11 -17 26 -26 44 -26 15 0 47 -9 71 -20 24 -11 52 -20
64 -20 20 0 20 0 1 21 -12 13 -25 18 -40 15 -13 -4 -26 -2 -29 4 -3 5 -16 10
-29 10 -22 0 -46 17 -46 33 0 5 15 6 34 3 19 -4 47 -4 61 0 22 5 25 10 20 34
-10 47 19 45 69 -5 l44 -45 73 0 c45 -1 84 -6 99 -15 25 -14 82 -20 92 -9 3 3
1 18 -5 35 -10 25 -17 29 -48 29 -25 0 -45 8 -63 25 -38 35 -68 41 -90 16 -24
-26 -62 -27 -75 -2 -12 22 -117 47 -158 36 l-28 -7 25 -20 25 -20 -62 5 c-60
5 -85 -5 -43 -16 23 -6 27 -27 5 -27 -41 0 -83 29 -95 64 -15 47 -11 57 31 71
29 10 36 9 46 -4 11 -14 12 -13 13 7 0 20 5 22 55 22 42 0 59 -5 74 -21 22
-24 127 -53 137 -38 3 5 -2 12 -10 15 -39 15 -5 64 43 64 31 0 124 -44 146
-70 22 -26 110 -70 139 -70 42 0 96 23 96 42 0 14 -8 18 -34 18 -28 0 -41 8
-69 42 -32 38 -37 41 -59 31 -18 -9 -19 -12 -5 -12 11 -1 17 -9 17 -26 0 -42
-37 -32 -89 25 -25 28 -51 50 -56 50 -17 1 -73 57 -80 81 -10 33 -23 48 -57
65 -23 12 -33 13 -43 4 -18 -15 -75 -3 -75 16 0 8 8 14 18 15 43 1 -109 39
-158 39 -52 0 -120 27 -120 47 0 10 152 14 257 7 80 -6 83 -7 77 -29 -5 -19 1
-25 36 -39 52 -21 156 -46 191 -46 20 0 25 5 25 23 -1 21 4 22 79 27 122 8 68
23 -104 30 -103 3 -146 9 -149 18 -2 8 11 12 45 12 68 1 32 20 -50 28 -34 3
-66 11 -72 18 -6 7 -43 14 -91 16 -91 5 -128 18 -79 29 27 6 25 7 -13 8 -49 1
-54 20 -10 35 25 9 57 1 145 -35 30 -12 35 -11 60 9 16 13 47 32 71 43 47 22
50 29 24 52 -26 24 -78 21 -141 -8 -53 -25 -81 -27 -81 -5 0 6 16 18 35 27 19
9 35 20 35 25 0 12 -110 10 -170 -3 -42 -9 -49 -13 -39 -25 6 -8 22 -14 35
-14 13 0 24 -4 24 -9 0 -18 -27 -29 -90 -34 -36 -3 -78 -9 -94 -13 -27 -6 -29
-5 -22 17 4 13 8 29 10 36 10 51 113 96 216 96 201 -2 239 -5 251 -19 6 -8 22
-14 35 -14 29 0 104 29 104 40 0 9 -118 23 -181 22 -41 -1 -61 14 -38 29 10 6
2 9 -23 9 -30 0 -37 -4 -40 -22 -2 -19 -10 -24 -47 -26 -29 -2 -49 2 -61 13
-14 13 -23 14 -38 6 -25 -14 -155 -7 -160 8 -5 14 28 27 101 41 41 8 57 16 53
25 -9 24 18 43 72 49 89 11 127 34 85 50 -11 5 -22 1 -30 -9 -6 -10 -16 -14
-22 -10 -16 9 -13 25 4 25 8 0 15 4 15 9 0 5 3 16 6 25 5 13 -1 16 -33 16 -21
0 -45 -6 -51 -12 -9 -9 -51 -13 -123 -15 -92 -1 -110 1 -105 13 4 11 -11 14
-84 14 -79 0 -91 2 -100 20 -6 11 -17 20 -24 20 -8 0 -19 7 -26 15 -17 20 1
41 41 50 31 7 38 22 14 31 -22 9 -84 -15 -95 -37 -8 -13 -21 -19 -47 -19 -20
0 -61 -8 -90 -17 -43 -14 -58 -15 -73 -5 -26 16 -40 15 -61 -4 -24 -21 -49
-12 -42 15 6 25 -4 26 -45 5 -40 -19 -86 -15 -90 9 -2 12 3 17 18 17 12 0 18
5 15 10 -9 15 -51 12 -65 -5 -16 -19 -39 -19 -64 0 -26 20 -45 19 -97 -5 -64
-29 -129 -27 -159 5 -21 22 -23 29 -11 46 16 27 6 37 -17 16 -24 -22 -59 -21
-103 2 -23 13 -41 16 -50 10 -8 -5 -31 -9 -51 -9 -37 0 -78 -27 -78 -51 0 -15
-40 0 -73 27 -18 15 -41 24 -64 24 -39 0 -42 18 -5 35 12 5 22 15 22 22 0 18
-35 16 -51 -3 -10 -12 -24 -15 -58 -10 -41 6 -48 3 -77 -25 l-33 -32 -98 16
c-96 15 -212 11 -185 -6 43 -28 -47 -44 -123 -21 -33 9 -85 15 -128 13 -39 -1
-86 1 -103 6 -40 9 -57 -12 -27 -32 20 -14 21 -16 5 -44 -12 -21 -25 -29 -44
-29 -45 0 -33 -27 25 -60 67 -38 115 -86 100 -101 -17 -17 -48 -6 -51 17 -2
16 -15 23 -61 32 -83 17 -151 16 -151 -3 0 -8 14 -24 31 -34 39 -24 61 -55 53
-75 -8 -21 -91 -66 -109 -59 -18 6 -19 17 -3 43 10 15 9 22 -6 39 -29 31 -63
34 -130 10 -34 -13 -70 -20 -79 -16 -26 10 -32 37 -16 66 14 25 14 26 -15 36
-47 15 -43 38 11 81 26 20 39 34 28 29 -11 -4 -42 -13 -70 -19 -31 -7 -45 -15
-37 -19 18 -12 15 -72 -5 -95 -24 -27 -193 -142 -210 -142 -19 0 -16 27 8 60
l22 28 -22 28 c-33 42 -28 47 47 41 l67 -7 -40 15 c-35 13 -74 48 -75 68 0 19
-21 3 -40 -30 -23 -42 -84 -87 -106 -79 -23 9 -16 43 16 79 26 30 28 36 15 47
-23 19 -46 5 -43 -27 2 -21 -4 -32 -31 -50 -40 -27 -81 -31 -81 -7 0 9 8 23
18 31 13 10 9 10 -15 -1 -18 -9 -50 -18 -73 -20 -25 -2 -50 -12 -65 -26 l-23
-22 -17 32 c-9 17 -15 44 -14 58 1 15 -1 44 -6 65 -10 48 3 63 42 50 35 -12
116 3 110 20 -2 7 -23 12 -48 12 -39 0 -44 3 -47 24 -3 15 -14 27 -33 34 -33
13 -42 57 -11 57 9 0 37 14 62 30 54 36 66 37 97 8 l23 -21 0 23 c0 29 42 102
87 153 18 20 33 46 33 58 0 28 -19 14 -36 -28 -15 -35 -68 -75 -94 -71 -23 5
-25 45 -2 52 11 4 27 15 36 25 16 18 16 19 -10 25 -15 4 -34 16 -43 28 -14 17
-61 28 -292 69 -150 26 -289 53 -308 60 -19 6 -91 42 -160 79 -90 48 -159 77
-239 100 -195 55 -241 73 -524 212 -169 83 -280 147 -497 289 -173 112 -262
180 -431 325 -74 64 -156 133 -182 153 -26 20 -169 135 -319 255 l-272 219
-136 3 c-151 3 -171 1 -171 -25 0 -22 40 -41 105 -50 43 -6 50 -10 48 -27 -2
-18 7 -22 63 -33 35 -7 97 -29 137 -49 l72 -36 -34 -5 c-53 -9 -62 -34 -24
-69 21 -20 28 -33 21 -40 -16 -16 0 -32 33 -32 31 0 40 17 14 26 -17 7 -20 24
-4 24 19 0 182 -84 170 -88 -6 -2 -11 -10 -11 -18 0 -8 -6 -17 -14 -20 -8 -3
-11 -15 -8 -30 3 -19 0 -26 -16 -31 -11 -2 -23 -12 -26 -21 -3 -10 -10 -24
-15 -32 -5 -8 -17 -35 -27 -59 l-18 -44 37 -32 c20 -18 37 -36 37 -40 0 -4
-17 -5 -37 -2 -32 5 -35 4 -19 -6 49 -31 61 -45 49 -58 -9 -9 -23 -8 -63 5
-65 21 -90 14 -90 -25 0 -25 -4 -29 -27 -29 l-26 0 24 -26 c13 -15 37 -32 53
-39 16 -7 41 -29 55 -50 19 -26 43 -43 86 -61 69 -27 85 -45 85 -91 l0 -34
-30 18 c-16 9 -30 20 -30 24 0 9 -95 77 -128 92 -15 6 -40 24 -56 40 -22 21
-37 28 -70 27 -114 -1 -152 11 -176 54 -13 26 -92 76 -140 91 -14 4 -39 23
-55 42 l-30 35 -65 -22 c-36 -12 -75 -28 -87 -36 -12 -8 -31 -14 -43 -14 -28
0 -26 -11 20 -81 21 -33 42 -69 45 -79 3 -10 19 -23 35 -29 28 -9 34 -19 28
-38 -2 -5 -16 -8 -32 -8 -24 0 -31 -5 -36 -25 -6 -22 -11 -25 -46 -22 -31 3
-37 1 -26 -9 6 -7 12 -22 12 -34 -1 -18 -4 -16 -30 13 -16 17 -39 32 -50 32
-12 0 -20 7 -20 18 -1 34 -42 108 -82 144 -31 29 -39 43 -35 60 10 37 -7 54
-37 40 -21 -9 -29 -7 -62 19 -32 25 -46 30 -84 28 -50 -3 -74 6 -67 25 7 19
-11 132 -29 176 -14 35 -26 46 -71 67 -51 24 -86 64 -70 79 4 4 29 9 56 12 46
4 50 7 57 34 3 18 1 40 -7 55 -12 22 -10 34 14 103 18 51 26 87 21 104 -5 23
-3 26 18 26 14 0 33 -9 43 -20 18 -19 18 -21 1 -33 -17 -12 -16 -14 9 -31 49
-32 84 7 45 49 -27 29 -22 42 9 24 33 -21 38 1 6 27 -17 14 -41 24 -55 22 -15
-1 -50 15 -88 40 -35 22 -68 42 -75 45 -12 4 44 58 94 90 15 10 37 34 48 53
29 49 59 60 114 41 38 -13 49 -13 63 -2 16 11 12 15 -39 31 -31 10 -57 21 -57
26 0 4 4 8 9 8 5 0 11 9 14 19 3 11 17 22 35 26 17 3 36 13 43 21 16 19 23 18
70 -13 44 -29 70 -22 45 12 -12 17 -11 22 15 46 16 15 29 31 29 36 0 4 -21 21
-48 37 -278 172 -399 268 -504 399 -148 187 -238 402 -298 721 -11 55 -33 152
-50 215 -16 63 -37 176 -45 250 -20 167 -30 212 -61 276 -60 122 -119 128
-219 23 -33 -35 -85 -100 -115 -145 -51 -76 -80 -102 -80 -70 0 7 -23 47 -50
90 -28 42 -62 106 -76 143 -38 101 -51 122 -119 191 -79 80 -147 113 -230 112
-33 -1 -73 -8 -88 -16z m558 -1014 c0 -29 -30 -45 -98 -52 -46 -4 -47 -4 -35
15 8 11 31 26 52 33 21 8 43 18 49 24 17 17 32 7 32 -20z m-1791 -575 c7 -19
-10 -96 -31 -138 -9 -17 -34 -57 -55 -89 -51 -75 -65 -109 -78 -191 -14 -86
-26 -112 -61 -126 -39 -17 -59 -7 -59 30 0 16 -4 30 -10 30 -20 0 -9 18 15 24
20 5 25 12 24 39 -2 80 14 159 37 183 13 13 24 29 24 37 0 8 8 25 19 38 10 13
21 41 25 61 7 36 45 78 71 78 6 0 20 9 30 20 22 24 41 26 49 4z m46 -55 c0 -5
-4 -9 -10 -9 -5 0 -10 7 -10 16 0 8 5 12 10 9 6 -3 10 -10 10 -16z m2679
-1529 c28 0 64 -83 45 -102 -7 -8 -112 39 -136 60 -20 17 -24 52 -7 69 7 7 22
5 49 -8 22 -11 43 -19 49 -19z m541 -842 c0 -11 16 -42 36 -69 21 -30 38 -66
41 -89 3 -22 10 -43 14 -46 15 -9 10 -88 -8 -144 -14 -42 -14 -56 -4 -72 7
-11 9 -23 6 -26 -4 -4 -12 1 -19 12 -74 123 -86 137 -106 126 -28 -15 -25 -45
8 -69 26 -21 27 -21 7 -36 -23 -19 -39 -15 -44 11 -7 39 -21 46 -56 24 -44
-27 -52 -26 -65 15 -10 31 -15 35 -46 35 -39 0 -54 24 -54 88 0 20 -6 49 -14
64 -15 28 -8 105 7 80 10 -15 44 -15 103 0 36 10 46 18 50 38 10 49 60 90 83
67 8 -8 15 -7 28 5 20 20 33 15 33 -14z m3700 -779 c0 -6 -21 -35 -46 -65 -41
-48 -51 -54 -84 -54 -25 0 -40 5 -44 16 -8 21 1 34 25 34 11 0 39 18 62 40 40
37 87 53 87 29z m831 -370 c5 -8 9 -19 9 -26 0 -6 20 -15 45 -18 46 -7 75 -29
59 -45 -11 -10 -170 -17 -180 -7 -4 3 -1 13 5 21 13 16 6 19 -54 28 -22 3 -34
46 -16 57 19 12 123 4 132 -10z m-127 -75 c23 -23 20 -53 -6 -58 -13 -3 -65
-7 -115 -11 -88 -5 -93 -5 -93 14 0 26 27 34 103 29 49 -2 62 0 63 12 0 8 2
18 2 23 3 12 30 8 46 -9z m-3113 -270 c16 -8 39 -12 49 -9 22 7 26 -6 10 -35
-13 -24 8 -40 22 -17 6 12 21 16 53 15 25 -1 45 -6 45 -10 0 -23 -26 -67 -56
-95 -47 -42 -43 -69 8 -65 63 6 69 -40 14 -113 -42 -57 -66 -106 -66 -138 -1
-18 -6 -42 -13 -54 -16 -29 -98 -115 -104 -109 -2 2 7 27 21 55 29 57 33 96
11 105 -10 3 -15 19 -15 46 0 33 -3 40 -19 40 -11 0 -23 -4 -26 -10 -3 -5 -15
-10 -26 -10 -23 0 -20 22 12 78 23 40 24 68 3 118 -16 39 -15 74 6 154 10 40
26 70 37 70 2 0 17 -7 34 -16z m-847 -859 c-4 -8 -8 -15 -10 -15 -2 0 -4 7 -4
15 0 8 4 15 10 15 5 0 7 -7 4 -15z m56 -42 c0 -15 5 -42 12 -60 9 -23 9 -36 1
-44 -16 -16 -53 50 -53 95 0 29 4 36 20 36 15 0 20 -7 20 -27z m6125 -13 c21
-22 37 -40 34 -40 -3 0 -23 18 -44 40 -21 22 -37 40 -34 40 3 0 23 -18 44 -40z
m-30 -58 c-3 -3 0 -11 6 -19 17 -20 5 -16 -14 5 -15 16 -15 19 -2 19 8 0 13
-3 10 -5z m125 -27 c13 -14 21 -25 18 -25 -2 0 -15 11 -28 25 -13 14 -21 25
-18 25 2 0 15 -11 28 -25z m-59 -82 c13 -16 12 -17 -3 -4 -17 13 -22 21 -14
21 2 0 10 -8 17 -17z m-68 -40 c-7 -2 -19 -2 -25 0 -7 3 -2 5 12 5 14 0 19 -2
13 -5z m597 -297 c0 -2 -7 -7 -16 -10 -8 -3 -12 -2 -9 4 6 10 25 14 25 6z
m-47 -33 c-7 -2 -19 -2 -25 0 -7 3 -2 5 12 5 14 0 19 -2 13 -5z m118 -20 c13
-16 12 -17 -3 -4 -17 13 -22 21 -14 21 2 0 10 -8 17 -17z m664 7 c-3 -5 -16
-10 -28 -9 -20 1 -20 2 3 9 14 4 26 8 28 9 2 1 0 -3 -3 -9z m-624 -47 c13 -16
12 -17 -3 -4 -17 13 -22 21 -14 21 2 0 10 -8 17 -17z m180 -30 c13 -16 12 -17
-3 -4 -17 13 -22 21 -14 21 2 0 10 -8 17 -17z m386 -20 c-12 -3 -16 -10 -12
-21 5 -13 3 -14 -6 -5 -14 14 -3 33 19 32 15 -1 14 -2 -1 -6z m63 -8 c0 -8 -7
-15 -15 -15 -13 0 -14 3 -3 15 16 18 18 18 18 0z m-240 -20 c13 -14 21 -25 18
-25 -2 0 -15 11 -28 25 -13 14 -21 25 -18 25 2 0 15 -11 28 -25z m-213 -17
c-3 -8 -6 -5 -6 6 -1 11 2 17 5 13 3 -3 4 -12 1 -19z m123 2 c0 -5 -8 -10 -17
-10 -15 0 -16 2 -3 10 19 12 20 12 20 0z m-179 -37 c13 -16 12 -17 -3 -4 -17
13 -22 21 -14 21 2 0 10 -8 17 -17z m429 13 c0 -2 -7 -7 -16 -10 -8 -3 -12 -2
-9 4 6 10 25 14 25 6z m57 -28 c-3 -8 -6 -5 -6 6 -1 11 2 17 5 13 3 -3 4 -12
1 -19z m-32 -18 c10 -11 16 -20 13 -20 -3 0 -13 9 -23 20 -10 11 -16 20 -13
20 3 0 13 -9 23 -20z m-945 -131 c0 -5 -4 -9 -10 -9 -5 0 -10 7 -10 16 0 8 5
12 10 9 6 -3 10 -10 10 -16z m-2201 -187 c1 -49 -30 -40 -43 12 -7 33 -6 41
10 53 17 12 20 11 26 -9 3 -13 6 -38 7 -56z m-621 -21 c18 -52 18 -62 6 -72
-21 -17 -31 -2 -38 62 -5 47 -2 69 10 69 1 0 11 -27 22 -59z m3653 -34 c-10
-9 -11 -8 -5 6 3 10 9 15 12 12 3 -3 0 -11 -7 -18z m-1169 -240 l18 -47 -30 0
c-23 0 -33 7 -45 30 -18 35 -19 57 -2 63 27 12 42 0 59 -46z m-38 -265 c20
-40 56 -135 52 -139 -17 -17 -132 127 -122 153 10 26 54 16 70 -14z"/>
<path d="M8660 16260 c0 -5 5 -10 11 -10 5 0 7 5 4 10 -3 6 -8 10 -11 10 -2 0
-4 -4 -4 -10z"/>
<path d="M8614 16216 c-3 -8 5 -28 17 -45 35 -47 14 -57 -50 -24 l-53 28 -22
-26 c-11 -15 -28 -28 -36 -31 -17 -5 116 -78 144 -78 18 0 18 1 3 18 -25 28
-21 32 32 32 l49 0 14 45 15 45 -31 19 c-48 29 -75 35 -82 17z m-43 -119 c-1
-12 -15 -9 -19 4 -3 6 1 10 8 8 6 -3 11 -8 11 -12z"/>
<path d="M8750 16195 c0 -10 7 -15 18 -13 21 4 19 22 -2 26 -10 2 -16 -3 -16
-13z"/>
<path d="M15580 14231 c16 -10 46 -14 70 -11 24 3 -21 19 -55 19 -22 0 -26 -2
-15 -8z"/>
<path d="M15710 14221 c-53 -7 -33 -21 30 -21 21 0 41 -6 43 -12 3 -7 6 -1 6
15 1 29 3 29 -79 18z"/>
<path d="M20570 14199 c-8 -5 -28 -14 -45 -21 l-30 -12 45 -5 c50 -7 42 -21
-19 -30 -34 -6 -57 -31 -27 -31 24 0 19 -22 -11 -47 l-28 -23 27 -24 c15 -13
33 -26 40 -28 20 -7 -20 -48 -46 -48 -12 0 -43 7 -70 15 -49 15 -83 10 -52 -7
11 -6 15 -16 11 -28 -4 -13 2 -24 20 -36 40 -26 28 -54 -26 -54 -12 0 -16 -5
-13 -15 4 -9 19 -15 39 -15 18 0 57 -11 86 -24 35 -16 76 -26 116 -27 73 -3
88 7 133 87 33 57 38 84 15 84 -22 0 -18 37 6 61 19 19 21 30 17 83 -3 34 -13
76 -22 94 -16 30 -20 32 -72 32 -39 0 -56 4 -60 15 -7 17 -13 18 -34 4z"/>
<path d="M15760 13581 c0 -15 66 -81 81 -81 22 1 52 27 44 39 -3 6 -19 11 -34
11 -16 0 -40 9 -54 20 -28 22 -37 25 -37 11z"/>
<path d="M16150 13331 c0 -5 3 -16 6 -24 5 -13 9 -13 32 -1 15 8 33 14 40 14
6 0 12 5 12 10 0 6 -20 10 -45 10 -25 0 -45 -4 -45 -9z"/>
<path d="M16260 13321 c0 -14 61 -62 74 -58 19 6 19 37 -1 37 -10 0 -27 7 -37
15 -23 17 -36 19 -36 6z"/>
<path d="M16045 13289 c-11 -4 -35 -8 -53 -8 -32 -1 -33 -2 -27 -33 13 -67 14
-68 55 -68 44 0 73 -22 68 -54 -2 -17 -13 -23 -56 -30 -68 -12 -105 3 -97 37
5 18 0 28 -20 41 -26 17 -28 17 -51 -5 -13 -12 -24 -30 -24 -39 0 -24 71 -60
132 -67 29 -3 69 -13 88 -21 l35 -16 -30 -7 c-39 -9 -148 -9 -205 -1 -41 7
-45 10 -42 34 2 22 -4 28 -36 41 -25 10 -42 24 -45 38 -6 21 -7 21 -29 7 -36
-24 -35 -54 2 -66 17 -6 38 -25 48 -41 12 -23 24 -31 45 -31 15 0 41 -10 58
-22 29 -22 30 -22 63 -4 28 15 37 16 53 5 17 -10 24 -9 44 4 34 25 98 21 153
-8 26 -14 56 -25 67 -25 10 0 19 -4 19 -10 0 -5 -7 -10 -15 -10 -8 0 -15 -4
-15 -10 0 -15 -54 -12 -76 5 -10 8 -25 15 -31 15 -22 0 -14 -19 14 -33 26 -14
26 -15 5 -21 -32 -11 -17 -26 25 -26 20 0 74 -15 121 -32 73 -28 87 -37 98
-64 16 -38 29 -44 68 -33 21 6 39 4 59 -6 37 -18 51 -19 65 -2 8 9 0 24 -28
57 l-38 45 -84 5 c-69 4 -83 8 -86 23 -2 11 3 18 15 18 10 1 0 5 -22 8 -34 5
-40 10 -40 31 0 22 4 25 30 22 l30 -3 -35 23 c-49 33 -46 52 10 56 24 2 50 8
56 13 7 5 23 5 42 -2 18 -6 37 -9 44 -6 7 2 -4 9 -25 15 -27 8 -66 8 -135 0
-127 -15 -152 -15 -150 -3 3 13 54 31 116 40 26 4 43 9 37 10 -5 2 -23 6 -38
10 -24 5 -28 10 -23 30 5 18 0 28 -19 43 -31 25 -32 34 -1 26 30 -7 43 12 17
25 -23 13 -81 15 -81 3 0 -12 -98 2 -111 15 -14 14 -3 33 17 33 17 0 18 14 2
28 -8 5 -22 6 -33 1z m433 -500 c-2 -6 -8 -10 -13 -10 -5 0 -11 4 -13 10 -2 6
4 11 13 11 9 0 15 -5 13 -11z"/>
<path d="M7850 13193 c0 -39 172 -195 192 -175 7 7 4 18 -11 38 -11 15 -21 37
-21 50 0 29 -14 38 -39 24 -21 -11 -22 -10 -62 43 -18 24 -59 38 -59 20z"/>
<path d="M15931 12939 c-31 -12 -20 -24 35 -38 56 -14 58 -43 4 -52 -33 -6
-32 -6 12 -8 37 -1 52 4 68 21 26 28 25 38 -3 38 -13 0 -32 9 -41 19 -22 24
-46 30 -75 20z"/>
<path d="M17827 12943 c-15 -14 -5 -25 41 -44 26 -11 59 -32 73 -47 14 -15 40
-35 58 -45 23 -12 31 -22 27 -33 -10 -27 35 -113 65 -123 15 -5 53 -36 86 -70
57 -59 103 -80 103 -47 0 18 -51 96 -62 96 -4 0 -8 13 -8 30 0 18 -18 58 -45
102 -25 40 -45 78 -45 84 0 6 -9 19 -21 30 -17 16 -22 16 -29 4 -6 -8 -10 -27
-10 -42 0 -41 -14 -34 -50 22 -45 70 -110 114 -110 75 0 -19 -9 -19 -34 0 -22
17 -29 18 -39 8z"/>
<path d="M15665 12872 c-3 -3 -5 -14 -5 -24 0 -10 -9 -22 -21 -26 -21 -8 -21
-9 6 -40 28 -34 70 -43 93 -20 9 9 17 8 37 -2 31 -17 31 -24 3 -38 -19 -9 -20
-11 -5 -11 9 -1 25 4 35 10 14 9 33 6 90 -17 40 -15 72 -31 72 -36 0 -4 11 -8
24 -8 l24 0 -19 37 c-11 21 -28 41 -40 45 -28 11 -14 28 21 28 21 0 36 -9 51
-29 23 -31 49 -32 49 -1 0 26 -33 50 -76 56 -32 5 -74 19 -93 31 -2 1 2 9 9
18 11 13 9 15 -13 15 -14 0 -29 -5 -32 -11 -4 -5 -19 -8 -33 -4 -92 19 -172
32 -177 27z"/>
<path d="M18345 12854 c20 -49 18 -63 -11 -75 l-29 -11 24 -19 c13 -10 32 -19
43 -19 12 0 23 -11 29 -30 8 -22 25 -36 69 -57 40 -19 62 -37 71 -56 6 -15 24
-36 39 -47 19 -14 27 -26 23 -39 -3 -12 7 -33 30 -57 63 -71 75 -114 31 -114
-29 0 -91 60 -100 96 -3 12 -17 43 -30 70 -13 26 -24 53 -24 60 0 21 -14 23
-48 7 -33 -16 -41 -43 -22 -73 6 -9 5 -17 -3 -22 -9 -5 -9 -15 1 -40 8 -18 16
-41 19 -51 9 -28 -21 -11 -42 26 -27 46 -96 118 -106 111 -5 -3 -9 -15 -9 -28
0 -24 22 -48 53 -59 25 -9 16 -33 -11 -29 -20 3 -21 1 -11 -28 6 -16 20 -37
31 -44 23 -16 16 -36 -13 -36 -10 0 -19 -4 -19 -8 0 -14 33 -40 55 -44 28 -5
33 -38 5 -38 -37 0 -92 29 -141 75 -54 51 -49 49 -99 34 -31 -9 -43 -8 -74 6
-43 21 -54 15 -37 -21 19 -43 6 -39 -42 10 -45 47 -75 61 -62 29 4 -10 11 -42
16 -72 10 -64 60 -165 84 -169 14 -3 16 1 10 27 -8 39 8 41 31 4 9 -16 25 -40
36 -55 l19 -28 -24 0 c-13 0 -27 4 -33 9 -14 14 -106 1 -100 -14 2 -7 10 -41
17 -75 6 -34 18 -64 25 -67 8 -3 11 -9 8 -15 -6 -10 43 -177 57 -193 12 -12
12 -45 0 -45 -5 0 -25 18 -45 40 -39 43 -61 52 -53 20 3 -13 0 -20 -9 -20 -8
0 -14 6 -14 14 0 19 -29 41 -40 30 -10 -10 15 -109 32 -131 6 -7 21 -13 34
-13 31 0 31 -24 0 -51 -21 -18 -23 -27 -21 -97 1 -42 6 -108 10 -146 7 -56 6
-68 -5 -61 -7 5 -26 11 -42 14 -33 7 -43 26 -13 26 37 0 45 126 9 156 -8 7
-20 21 -25 31 -8 15 -5 20 16 30 23 10 26 16 20 42 -3 17 -8 51 -10 76 -4 64
-21 100 -65 143 -51 48 -70 48 -70 0 0 -29 7 -42 32 -63 33 -27 35 -66 3 -54
-13 5 -14 2 -5 -21 6 -15 9 -28 8 -29 -2 0 -13 -6 -25 -13 -20 -11 -22 -10
-28 30 -9 53 -22 77 -40 77 -18 0 -20 -71 -4 -119 9 -25 9 -38 -2 -57 -11 -21
-10 -37 9 -109 12 -47 25 -91 28 -100 8 -20 -10 -19 -31 2 -10 10 -15 26 -12
41 6 33 -26 64 -61 60 -23 -3 -27 -8 -30 -40 -3 -30 3 -44 31 -75 18 -21 37
-46 40 -56 5 -14 2 -16 -18 -11 -22 5 -25 3 -25 -21 0 -21 -4 -25 -19 -20 -30
9 -36 -38 -12 -83 12 -20 25 -49 31 -64 12 -35 37 -36 52 -2 l12 26 12 -33
c15 -41 18 -128 4 -91 -17 41 -28 22 -27 -45 1 -39 7 -68 13 -70 21 -7 44 28
44 67 0 21 5 42 10 45 6 4 10 -15 10 -50 0 -62 13 -76 56 -57 27 13 34 59 9
68 -11 4 -15 21 -15 55 0 53 11 63 28 25 10 -22 13 -23 46 -12 40 12 44 22 19
42 -17 12 -17 14 4 29 12 9 28 35 34 58 6 23 26 59 45 79 19 21 34 43 34 48 0
6 5 10 10 10 6 0 10 -12 10 -26 0 -60 64 -115 72 -61 2 12 10 22 18 22 8 0 16
-10 18 -22 6 -40 22 -24 22 21 0 27 -6 48 -15 56 -14 12 -13 16 10 40 l25 27
-20 18 c-37 34 -25 49 50 57 24 3 25 5 28 91 1 48 7 87 12 87 6 0 10 -17 10
-37 0 -21 4 -44 9 -52 10 -16 31 -6 31 15 0 18 24 18 40 -1 7 -8 19 -15 27
-15 21 0 27 29 10 48 -14 16 -15 24 -3 75 8 32 16 61 20 64 3 4 14 -12 23 -36
20 -52 32 -42 40 33 3 31 10 59 14 62 5 3 9 -2 9 -10 0 -21 21 -31 30 -16 4 7
11 58 15 113 5 62 11 94 16 86 5 -8 9 -28 9 -44 0 -17 8 -42 17 -55 l17 -25
12 40 12 40 1 -46 c1 -54 19 -111 32 -103 5 3 9 16 9 30 0 13 5 24 10 24 6 0
10 -4 10 -10 0 -5 4 -10 9 -10 5 0 9 17 10 38 0 20 3 65 7 98 5 56 4 64 -19
85 -13 13 -28 38 -31 54 -4 17 -18 46 -31 65 -29 44 -37 71 -26 89 8 12 12 12
25 2 17 -14 46 -94 46 -126 0 -12 9 -34 20 -47 11 -14 24 -38 30 -52 5 -15 14
-24 20 -21 23 14 1 140 -24 132 -11 -4 -38 91 -30 105 10 16 24 7 30 -19 13
-55 57 -143 75 -148 17 -6 59 -97 59 -128 0 -7 7 -22 15 -33 14 -17 15 -12 16
61 0 44 1 100 1 125 1 25 -2 56 -7 69 -8 24 -8 24 43 17 29 -4 52 -5 52 -4 0
2 -7 25 -15 52 -19 62 -19 72 0 56 8 -7 15 -21 15 -31 0 -11 5 -19 10 -19 14
0 13 23 -2 38 -8 8 -8 15 2 26 8 10 10 28 6 51 -8 40 8 49 18 10 9 -36 29 -32
21 4 -4 21 -2 30 10 35 13 4 14 10 5 26 -6 11 -17 20 -24 20 -7 0 -21 10 -32
21 -10 12 -29 25 -42 30 -28 11 -24 33 7 37 15 2 31 -6 47 -25 13 -15 24 -23
24 -18 0 6 -13 25 -30 43 -16 18 -30 43 -30 56 0 16 -18 37 -61 71 -82 63
-149 84 -149 45 0 -11 3 -20 8 -20 4 0 22 -13 40 -30 18 -16 40 -30 48 -30 8
0 14 -4 14 -9 0 -14 -28 -33 -40 -26 -6 4 -17 -9 -26 -30 l-15 -37 -55 56
c-30 31 -62 73 -70 92 -12 27 -18 34 -27 25 -6 -6 -16 -11 -22 -11 -15 0 -85
65 -85 79 0 16 42 14 67 -4 26 -19 37 -6 23 29 -7 19 -17 26 -37 26 -17 0 -39
12 -59 31 -38 36 -73 35 -54 -1 6 -12 9 -26 7 -33 -6 -18 -63 48 -70 80 -8 39
-49 97 -71 101 -15 3 -17 0 -11 -14z m605 -409 c0 -8 -4 -15 -10 -15 -5 0 -10
7 -10 15 0 8 5 15 10 15 6 0 10 -7 10 -15z m-190 -60 c16 -9 37 -29 45 -45 9
-17 20 -30 25 -30 6 0 10 -7 10 -17 0 -9 3 -13 6 -10 4 3 -1 23 -11 42 -18 40
-14 55 9 36 17 -14 56 -112 56 -140 0 -10 -11 -24 -25 -31 -23 -13 -28 -11
-58 18 -18 18 -41 32 -52 32 -38 0 -55 29 -55 97 0 68 4 72 50 48z"/>
<path d="M18103 12512 c-33 -5 -29 -20 22 -92 52 -74 62 -82 87 -69 27 14 22
34 -16 62 -22 17 -36 38 -40 61 -7 36 -18 44 -53 38z"/>
<path d="M18290 12331 c0 -6 5 -13 10 -16 6 -3 10 1 10 9 0 9 -4 16 -10 16 -5
0 -10 -4 -10 -9z"/>
<path d="M8670 11936 c-5 -13 -16 -28 -25 -33 -14 -8 -11 -18 19 -84 40 -87
59 -151 81 -274 28 -150 83 -296 138 -370 15 -20 16 -20 40 3 35 33 89 138 85
165 -3 18 -7 14 -25 -24 -15 -34 -28 -48 -48 -53 -15 -4 -30 -4 -33 -1 -3 3
-6 44 -7 93 l-1 87 -27 -3 c-25 -3 -27 0 -27 38 0 35 -4 43 -30 58 -24 13 -29
22 -26 42 17 93 18 110 2 116 -13 5 -15 16 -10 59 4 34 3 55 -5 59 -6 4 -11 0
-11 -11 -1 -14 -7 -11 -31 16 -24 26 -29 39 -24 60 19 75 18 81 -4 81 -14 0
-25 -9 -31 -24z"/>
<path d="M18810 11818 c0 -27 5 -48 10 -48 13 0 13 60 0 80 -7 11 -10 2 -10
-32z"/>
<path d="M12670 11669 c0 -11 4 -18 10 -14 5 3 7 12 3 20 -7 21 -13 19 -13 -6z"/>
<path d="M12610 11670 c0 -5 5 -10 10 -10 6 0 10 5 10 10 0 6 -4 10 -10 10 -5
0 -10 -4 -10 -10z"/>
<path d="M15410 11624 c0 -8 5 -12 10 -9 6 3 10 10 10 16 0 5 -4 9 -10 9 -5 0
-10 -7 -10 -16z"/>
<path d="M15640 11631 c0 -13 28 -33 41 -29 8 3 6 9 -5 21 -19 18 -36 22 -36
8z"/>
<path d="M13340 11602 c0 -4 9 -25 20 -47 11 -22 20 -45 20 -52 0 -17 19 -17
26 1 8 21 -21 83 -45 96 -12 6 -21 7 -21 2z"/>
<path d="M15421 11521 c-11 -7 -7 -16 22 -43 20 -18 38 -44 39 -58 3 -22 0
-25 -24 -22 -33 3 -34 -1 -7 -44 32 -53 50 -58 72 -21 l20 32 16 -23 c45 -64
59 -77 72 -65 24 24 14 70 -28 125 -22 29 -46 68 -53 86 -11 28 -17 32 -44 31
-17 -2 -40 1 -51 4 -11 4 -26 3 -34 -2z"/>
<path d="M15330 11406 c0 -14 4 -27 9 -30 12 -8 22 20 15 39 -9 23 -24 18 -24
-9z"/>
<path d="M17406 11401 c-3 -5 5 -23 19 -40 14 -16 33 -51 42 -77 11 -33 25
-52 50 -66 47 -28 57 -50 40 -90 -8 -18 -21 -39 -30 -47 -27 -22 -22 -59 10
-67 68 -17 88 114 33 213 -26 45 -28 54 -15 59 36 14 -31 115 -74 112 -14 -1
-36 2 -48 6 -12 4 -24 3 -27 -3z"/>
<path d="M15520 11286 c0 -21 83 -146 98 -146 18 0 15 10 -19 76 -39 73 -79
109 -79 70z"/>
<path d="M18960 10801 c0 -6 22 -38 49 -73 26 -35 56 -79 66 -98 10 -19 23
-42 30 -50 7 -8 15 -27 18 -41 4 -14 25 -52 47 -85 22 -32 40 -64 40 -70 0
-20 24 -32 53 -27 33 6 34 15 5 46 -46 49 -89 116 -124 193 -27 57 -55 98
-102 146 -63 65 -82 79 -82 59z"/>
<path d="M19310 10313 c3 -45 1 -50 -13 -24 -19 39 -41 40 -32 2 5 -22 1 -43
-10 -67 -9 -20 -14 -42 -11 -50 7 -18 39 -31 43 -18 18 51 60 41 105 -23 21
-31 32 -60 33 -82 0 -27 6 -39 26 -50 15 -8 34 -11 45 -7 18 7 18 8 -3 26 -26
20 -30 40 -9 40 13 0 86 -101 86 -120 0 -6 -5 -19 -12 -30 -12 -18 -4 -50 37
-152 5 -13 2 -18 -8 -18 -9 0 -21 15 -27 35 -7 20 -23 43 -36 52 -13 8 -24 23
-24 32 0 18 -109 155 -117 147 -2 -2 0 -20 5 -39 12 -42 -6 -42 -28 -1 -7 13
-22 24 -31 24 -16 0 -17 -4 -9 -25 9 -23 8 -25 -9 -15 -11 5 -30 10 -43 10
-13 0 -33 7 -44 15 -20 15 -54 20 -54 8 1 -16 28 -43 42 -43 9 0 21 -7 28 -15
10 -12 15 -13 28 -3 9 8 17 9 19 3 14 -40 35 -63 77 -85 27 -14 57 -36 67 -50
51 -73 22 -105 -36 -41 -21 23 -44 41 -51 41 -19 0 -18 -19 1 -27 9 -3 15 -14
13 -24 -2 -13 8 -24 31 -36 19 -10 36 -23 38 -29 2 -6 -14 -23 -36 -37 -46
-31 -45 -44 5 -82 19 -14 34 -33 34 -41 0 -13 -3 -13 -28 0 -16 8 -34 22 -41
30 -8 9 -17 16 -22 16 -16 0 -9 -22 16 -52 14 -16 25 -34 25 -39 0 -14 -26
-11 -40 6 -7 8 -19 15 -26 15 -24 0 -3 -32 70 -110 106 -111 133 -149 115
-161 -16 -10 3 -29 80 -81 45 -30 54 -49 19 -40 l-22 5 19 -30 c11 -17 35 -49
54 -71 19 -22 42 -59 50 -83 13 -36 22 -45 46 -49 20 -4 31 -12 35 -29 6 -25
30 -42 30 -22 0 19 26 12 50 -14 14 -15 34 -25 52 -25 36 0 75 -20 107 -54 30
-32 22 -53 -23 -62 -20 -3 -36 -9 -36 -13 0 -9 27 -47 56 -78 19 -21 23 -33
18 -58 -5 -28 0 -38 48 -88 59 -62 84 -70 140 -41 17 9 40 14 53 12 l22 -5
-19 39 c-14 29 -30 44 -64 58 -24 11 -44 26 -44 34 0 9 -11 23 -25 32 -28 18
-23 39 7 31 14 -4 17 -2 9 7 -14 16 -4 27 17 19 12 -5 14 -2 8 13 -13 33 -12
38 9 42 14 2 41 -21 93 -78 54 -59 68 -80 55 -80 -25 0 -43 -19 -43 -45 0 -16
9 -25 36 -33 20 -6 42 -8 50 -5 18 7 18 42 -1 63 -12 14 -12 17 5 28 15 9 22
9 35 -4 8 -8 15 -24 15 -34 0 -11 17 -41 37 -69 30 -40 40 -48 54 -40 28 15
42 71 28 117 -8 29 -8 44 0 60 6 11 11 34 11 50 0 17 6 32 15 36 12 4 15 30
15 148 0 185 -1 186 -151 264 -134 70 -207 135 -246 221 -15 32 -35 64 -45 71
-10 7 -16 18 -13 23 8 12 -62 136 -80 142 -10 5 -12 19 -8 60 5 50 4 55 -16
62 -29 9 -41 35 -52 112 -5 35 -16 78 -24 94 -12 22 -14 45 -10 87 6 55 4 60
-48 152 -30 52 -61 96 -70 98 -25 5 -21 -29 8 -68 39 -53 30 -71 -11 -22 -35
41 -64 55 -64 29 0 -7 14 -26 30 -42 28 -26 49 -78 65 -157 3 -16 11 -28 18
-28 7 0 23 -22 36 -49 18 -39 21 -53 12 -69 -6 -12 -12 -31 -13 -44 -1 -13 -4
6 -7 42 l-6 65 -35 -2 -35 -2 3 77 c3 67 1 79 -16 96 -20 18 -21 17 -28 -19
-3 -20 -3 -54 0 -76 8 -47 -13 -51 -25 -6 -4 15 -20 41 -36 57 -15 16 -37 39
-48 52 l-20 23 -3 -28 c-6 -47 -32 -28 -89 63 -29 46 -65 91 -79 98 -24 13
-25 15 -9 32 20 22 12 40 -16 40 -11 0 -41 20 -67 44 -26 24 -58 49 -70 55
-22 12 -24 11 -22 -16z"/>
<path d="M19500 10257 c0 -18 74 -133 108 -169 25 -28 52 -37 52 -19 0 6 -21
39 -47 74 -27 35 -56 78 -65 95 -17 32 -48 44 -48 19z"/>
<path d="M19170 10196 c0 -9 -9 -16 -20 -16 -26 0 -25 -14 4 -53 13 -18 26
-43 28 -56 l3 -23 24 19 25 20 -22 28 c-12 15 -22 40 -22 56 0 15 -4 31 -10
34 -5 3 -10 -1 -10 -9z"/>
<path d="M18325 10020 c4 -80 12 -151 17 -158 6 -6 22 -18 37 -25 20 -9 27
-22 32 -52 3 -22 23 -74 44 -115 21 -41 50 -109 65 -150 16 -41 34 -76 42 -78
8 -1 24 15 35 36 26 45 49 67 83 77 49 15 52 52 10 175 -22 67 -29 78 -29 53
-1 -35 -18 -44 -28 -15 -3 9 -19 28 -35 42 -23 20 -32 42 -47 110 -26 120 -37
145 -56 130 -12 -10 -15 -10 -16 1 0 8 -10 -8 -23 -36 -13 -27 -33 -59 -46
-70 l-23 -20 8 25 c4 14 14 37 21 52 18 35 18 43 -3 89 -10 24 -21 35 -30 32
-8 -3 -25 5 -39 18 l-26 24 7 -145z"/>
<path d="M19720 10090 c-11 -7 -8 -19 16 -64 16 -31 32 -56 37 -56 20 0 -6
108 -30 123 -5 3 -15 2 -23 -3z"/>
<path d="M19230 10011 c0 -5 5 -13 10 -16 6 -3 10 -2 10 4 0 5 -4 13 -10 16
-5 3 -10 2 -10 -4z"/>
<path d="M17822 9324 c-50 -26 -84 -71 -72 -94 6 -11 19 -24 30 -30 33 -18 23
-30 -25 -30 -31 0 -47 -5 -51 -15 -10 -24 -31 -17 -44 15 -7 17 -20 35 -29 40
-16 8 -78 -2 -128 -21 l-23 -9 21 -41 c21 -40 22 -44 9 -187 -14 -163 -6 -250
31 -345 27 -69 34 -174 19 -267 -6 -41 -15 -120 -20 -175 -8 -113 -18 -138
-85 -210 -26 -27 -71 -81 -100 -120 -30 -38 -76 -89 -104 -113 -56 -48 -74
-90 -61 -147 11 -47 40 -77 114 -119 55 -31 89 -41 211 -65 52 -10 119 -42
173 -83 41 -31 49 -33 122 -33 43 0 80 2 83 5 3 3 7 34 10 70 3 36 13 103 21
150 9 47 14 98 10 113 -3 16 -1 34 6 42 7 8 10 23 8 33 -3 10 1 27 8 37 8 10
14 25 14 33 0 7 54 116 119 241 65 125 121 236 123 247 2 10 -4 26 -14 34 -13
11 -26 63 -48 185 -32 179 -39 288 -25 440 7 81 5 96 -14 139 -11 27 -21 56
-21 65 0 24 25 90 38 103 18 18 15 25 -19 58 -20 18 -43 30 -59 30 -15 0 -41
7 -58 16 -49 24 -131 28 -170 8z"/>
<path d="M10777 9007 c-18 -12 -16 -19 23 -132 69 -198 91 -309 96 -480 4
-122 1 -167 -14 -238 -15 -74 -16 -90 -5 -94 8 -3 23 -23 33 -44 13 -24 28
-39 42 -41 20 -3 24 -10 28 -58 3 -33 8 -50 13 -42 12 18 37 15 37 -5 0 -10
-7 -27 -15 -37 -20 -26 -19 -36 4 -36 10 0 35 -20 56 -45 l37 -45 45 46 c33
32 49 42 56 35 18 -18 32 -13 50 19 15 25 16 33 5 52 -7 13 -22 23 -33 23 -13
0 -21 9 -26 30 -4 17 -10 37 -13 46 -5 11 1 19 19 27 29 13 34 52 10 72 -17
14 -20 36 -6 44 5 3 21 -4 35 -15 24 -19 26 -26 21 -63 -6 -38 -3 -44 34 -85
22 -25 44 -41 48 -37 5 4 -2 16 -15 26 l-22 18 26 21 c15 12 32 21 38 21 6 0
17 4 25 9 12 7 9 16 -16 48 -43 55 -46 62 -33 78 18 21 22 20 68 -25 22 -22
45 -40 51 -40 18 0 13 26 -9 45 -26 23 -25 33 2 55 l22 18 -32 27 c-47 39 -64
77 -56 125 4 22 10 40 15 40 11 0 44 -49 63 -95 19 -44 72 -105 93 -105 15 0
15 -3 4 37 -7 24 -6 35 4 43 16 13 36 5 34 -13 -3 -26 2 -37 17 -37 11 0 14 5
9 18 -35 84 -26 136 16 88 12 -14 26 -26 31 -26 4 0 8 22 8 50 0 39 4 52 20
60 30 16 25 33 -8 25 -23 -5 -31 -1 -42 20 -15 28 -4 50 11 22 6 -9 14 -17 19
-17 19 0 10 37 -21 85 -27 42 -30 54 -21 77 8 22 6 32 -16 62 -26 37 -33 83
-19 122 5 15 2 27 -9 38 -25 25 -48 16 -49 -19 0 -23 -5 -31 -23 -33 -51 -8
-42 -71 14 -92 19 -8 24 -16 22 -39 -1 -16 4 -36 11 -45 8 -9 11 -20 7 -23 -4
-4 -17 5 -29 19 -38 45 -102 80 -138 76 -34 -3 -46 8 -91 92 -16 28 -22 31
-48 25 -22 -5 -32 -3 -36 9 -15 39 -44 6 -44 -51 0 -29 15 -37 41 -22 28 15
39 -1 39 -59 0 -37 4 -45 30 -60 21 -12 30 -25 30 -42 0 -34 26 -70 51 -70 25
0 24 27 -1 60 -11 14 -19 39 -19 55 0 17 3 24 6 17 3 -8 24 -22 48 -32 24 -10
51 -30 61 -45 11 -15 47 -56 82 -90 34 -35 62 -69 62 -75 0 -15 -37 -3 -69 21
-13 11 -29 19 -36 19 -7 0 -24 9 -38 20 -18 15 -34 19 -52 14 -46 -11 -101 22
-134 82 -17 29 -33 64 -37 78 -6 25 -30 53 -39 44 -2 -2 0 -20 5 -39 5 -18 11
-46 14 -60 3 -14 19 -43 36 -64 29 -37 36 -67 24 -99 -10 -26 -27 -18 -20 9 5
19 0 35 -19 59 -14 19 -36 60 -49 93 -21 55 -24 58 -56 58 -18 0 -35 -5 -37
-12 -2 -6 19 -37 46 -67 38 -42 51 -64 51 -87 0 -17 -4 -28 -10 -24 -5 3 -10
15 -10 25 0 36 -42 72 -92 77 -36 4 -53 13 -79 41 -27 28 -35 32 -37 18 -6
-29 -43 29 -49 77 l-5 42 35 -40 c41 -47 54 -43 32 8 -8 20 -15 49 -15 65 0
16 -9 41 -20 55 -11 14 -20 39 -20 56 0 29 -27 87 -58 124 -14 16 -17 16 -38
2 -31 -20 -32 -19 -36 12 -3 32 -25 40 -51 20z"/>
<path d="M11650 8755 c0 -32 21 -74 50 -100 13 -11 30 -36 38 -55 l15 -35 10
32 c8 27 6 36 -15 61 -22 26 -35 53 -52 105 -3 9 -15 17 -26 17 -15 0 -20 -7
-20 -25z"/>
<path d="M19825 8400 c-5 -21 7 -78 40 -191 25 -89 59 -215 75 -282 16 -66 32
-122 35 -125 5 -6 25 43 25 62 0 8 7 30 15 50 13 31 14 53 5 138 -5 56 -8 104
-5 107 3 3 16 -1 28 -9 63 -40 108 -61 117 -55 16 10 -4 30 -71 76 -31 21 -73
61 -93 89 -28 39 -42 51 -59 48 -18 -2 -22 -9 -22 -41 0 -44 -20 -50 -36 -9
-7 15 -16 37 -21 48 -7 15 -6 33 3 57 10 29 10 39 0 51 -20 23 -29 20 -36 -14z"/>
<path d="M19993 7762 c-23 -31 -53 -165 -53 -236 0 -22 7 -66 16 -96 30 -105
32 -129 18 -208 -19 -105 -18 -135 7 -219 l21 -71 -27 -59 c-24 -49 -29 -76
-34 -179 l-6 -120 -46 -62 -46 -62 21 -76 20 -77 -22 -15 c-12 -8 -22 -23 -22
-32 0 -30 -50 -63 -87 -57 -31 5 -32 4 -48 -44 -10 -28 -15 -51 -14 -53 2 -1
25 -15 51 -29 36 -21 57 -44 89 -98 24 -39 50 -74 58 -77 9 -3 20 -11 24 -18
10 -17 100 -44 144 -44 18 0 33 -4 33 -10 0 -5 34 -7 87 -3 l86 6 -7 -24 c-26
-89 -36 -168 -36 -285 l0 -132 -62 27 c-56 23 -76 26 -179 26 l-116 0 -88 -44
c-161 -80 -277 -224 -321 -401 -9 -36 -19 -118 -23 -184 l-6 -119 -102 107
-103 106 -205 -246 -206 -247 21 -22 c18 -19 13 -18 -42 9 -56 28 -71 31 -158
31 -80 0 -102 -4 -138 -23 -69 -37 -117 -87 -147 -154 -24 -54 -29 -80 -34
-183 l-6 -119 -73 122 c-52 87 -77 120 -85 114 -7 -5 -115 -89 -242 -187 -126
-97 -236 -183 -244 -190 -12 -11 -10 -19 8 -49 21 -34 23 -34 54 -21 103 42
179 22 245 -66 56 -74 447 -718 488 -804 51 -106 43 -164 -33 -240 l-41 -40
22 -37 c11 -21 25 -38 29 -38 7 0 665 397 746 449 13 8 12 15 -5 46 -10 20
-22 38 -25 40 -3 3 -30 -5 -60 -16 -73 -28 -147 -28 -193 1 -48 29 -89 89
-301 439 l-178 293 -5 157 c-5 184 9 267 57 315 63 63 121 23 166 -115 44
-134 76 -183 139 -216 35 -18 114 -20 147 -3 44 23 89 74 100 113 21 78 -21
190 -105 284 l-47 52 46 27 c84 49 145 43 232 -23 58 -44 638 -664 672 -719
49 -78 44 -136 -18 -230 l-21 -30 34 -33 33 -32 304 287 c167 159 305 293 307
299 1 6 -10 23 -26 38 l-29 28 -64 -31 c-137 -65 -146 -59 -560 380 -122 129
-225 245 -230 258 -14 36 -10 249 5 323 34 159 123 252 241 252 86 0 142 -37
311 -207 262 -263 488 -510 518 -565 36 -67 32 -119 -14 -191 l-33 -51 28 -30
c16 -16 33 -29 38 -29 5 0 128 114 275 253 146 138 284 268 306 289 l41 36
-33 34 -33 35 -56 -29 c-75 -38 -134 -38 -194 0 -24 16 -125 114 -223 218 -99
104 -227 237 -285 297 l-106 107 1 158 c0 137 3 165 23 222 61 174 192 245
326 178 22 -12 62 -39 89 -62 87 -72 605 -625 637 -679 39 -67 36 -124 -10
-199 l-32 -51 33 -33 33 -32 305 289 c168 159 306 293 308 297 1 4 -11 21 -28
37 l-30 28 -52 -26 c-83 -42 -109 -44 -172 -13 -44 22 -95 69 -253 234 -303
317 -393 406 -453 444 -164 104 -348 113 -514 25 -34 -17 -97 -67 -142 -109
-45 -43 -84 -78 -89 -78 -4 0 -20 -9 -36 -21 l-29 -20 0 45 c0 59 -17 59 -52
1 -26 -44 -59 -64 -43 -27 5 9 11 42 14 72 4 30 10 60 14 67 11 17 -11 27 -28
13 -8 -7 -26 -37 -41 -69 -15 -31 -30 -62 -34 -70 -3 -8 -12 -17 -20 -19 -17
-6 -6 55 15 78 8 9 15 24 15 34 0 9 7 19 15 22 10 4 15 19 15 43 0 21 6 46 14
57 13 17 12 22 -7 42 -19 21 -20 26 -9 67 7 25 12 54 12 64 0 10 10 25 22 33
21 14 22 18 9 41 -11 20 -11 32 -2 58 10 28 7 42 -24 119 -19 48 -35 99 -35
112 0 14 -9 46 -20 71 -11 25 -23 73 -27 107 -6 58 -5 62 14 58 13 -2 32 11
55 35 l36 38 70 -5 c58 -4 71 -2 76 11 4 9 -2 25 -12 37 -26 29 -39 174 -17
182 41 16 -18 89 -62 78 -18 -5 -20 -1 -20 43 0 82 -11 151 -29 177 -23 36
-38 33 -30 -6 18 -85 18 -108 3 -108 -8 0 -25 20 -37 45 -12 25 -25 43 -30 40
-14 -9 2 -89 21 -108 11 -10 19 -31 19 -48 0 -17 5 -39 10 -49 12 -22 -1 -34
-28 -25 -30 9 -62 92 -71 180 -4 44 -15 94 -24 110 -11 21 -12 36 -6 48 7 11
6 17 -1 17 -19 0 -11 76 11 104 12 15 19 37 17 52 l-3 26 -22 -30z m870 -1756
c76 -37 130 -87 465 -438 161 -168 300 -309 308 -312 9 -3 28 -6 42 -6 25 0
22 -4 -38 -66 -85 -85 -94 -91 -97 -52 -1 17 -9 40 -17 52 -30 45 -626 664
-682 709 -87 69 -149 99 -218 107 l-61 6 50 17 c71 24 176 17 248 -17z m-799
-745 c88 -43 181 -129 466 -431 157 -166 297 -308 312 -316 15 -8 37 -14 49
-14 22 0 21 -2 -12 -36 -40 -42 -136 -124 -126 -108 18 30 -17 85 -140 215
-316 334 -525 548 -574 586 -83 64 -153 95 -215 97 -30 0 -54 2 -54 3 0 1 21
9 48 18 68 22 185 15 246 -14z m-409 -1101 c299 -315 387 -402 414 -410 19 -5
39 -7 45 -4 6 3 -25 -28 -69 -69 l-80 -75 -6 34 c-3 19 -17 47 -30 61 -51 58
-718 760 -749 788 -27 26 -38 30 -85 29 l-54 -2 67 80 67 80 50 -55 c27 -31
221 -236 430 -457z m-892 51 c66 -61 113 -165 87 -196 -34 -41 -63 -10 -106
118 -13 39 -33 86 -44 105 l-21 35 28 -18 c15 -10 41 -29 56 -44z m-380 -766
c175 -289 330 -534 344 -545 14 -11 32 -20 39 -20 26 0 14 -15 -34 -42 -26
-15 -66 -39 -89 -53 l-42 -25 6 33 c3 23 -2 47 -16 75 -44 86 -554 918 -579
945 -14 15 -35 27 -46 27 -12 0 -31 3 -43 6 -20 6 -14 13 54 65 43 32 80 59
83 59 3 0 148 -236 323 -525z"/>
<path d="M11551 7516 c-7 -8 -15 -31 -18 -53 -7 -46 -65 -175 -101 -222 -19
-25 -26 -48 -27 -82 -1 -42 1 -47 16 -39 25 14 32 -14 13 -58 -9 -21 -15 -62
-15 -94 1 -37 -6 -73 -20 -105 -28 -64 -28 -107 0 -172 19 -45 22 -66 18 -125
-6 -88 -23 -223 -43 -339 -9 -51 -12 -101 -8 -120 6 -28 10 -19 31 73 20 91
25 147 33 420 11 388 25 490 101 727 27 87 48 203 37 203 -3 0 -11 -6 -17 -14z"/>
<path d="M10796 7378 c-15 -105 -19 -362 -7 -476 26 -244 -28 -459 -205 -819
-82 -167 -89 -177 -180 -270 -112 -115 -152 -170 -225 -313 -38 -74 -71 -123
-114 -167 -109 -113 -140 -147 -154 -173 -51 -92 -50 -83 -36 -323 9 -170 13
-176 106 -196 62 -13 436 -15 444 -2 3 5 21 7 40 4 21 -3 41 -1 49 6 8 7 25
12 38 10 13 -1 30 0 38 3 8 3 53 12 100 21 93 18 116 35 162 122 11 21 38 62
58 90 74 97 127 224 151 354 14 80 36 111 124 179 23 16 47 43 55 59 8 15 29
45 47 65 60 69 86 134 91 228 4 77 3 83 -11 68 -9 -9 -17 -37 -19 -69 -3 -51
-4 -53 -38 -62 -45 -11 -57 -22 -65 -58 -13 -58 -45 -43 -49 25 -4 53 -16 75
-16 29 0 -36 -26 -65 -36 -39 -10 26 -20 19 -33 -24 -9 -30 -18 -41 -38 -46
-24 -7 -25 -9 -20 -61 5 -47 3 -54 -11 -51 -9 2 -21 20 -28 43 -9 32 -13 36
-19 22 -4 -10 -5 -40 -1 -67 6 -43 4 -51 -16 -70 -13 -12 -23 -31 -23 -42 0
-30 -23 -34 -35 -6 l-9 23 -7 -23 c-6 -20 -11 -22 -38 -16 l-31 6 20 -22 c14
-16 21 -38 22 -79 1 -31 5 -73 9 -95 8 -49 -14 -46 -31 5 -8 23 -19 35 -33 37
-12 2 -22 8 -22 13 0 6 -9 7 -21 4 -15 -5 -22 -2 -26 14 -6 25 -23 28 -23 5 0
-9 -11 -24 -24 -35 -14 -11 -30 -41 -40 -79 -18 -62 -25 -68 -70 -50 -29 11
-34 41 -11 60 23 19 8 29 -32 20 -46 -11 -56 -5 -50 29 3 15 1 33 -4 41 -8 13
-10 13 -19 0 -13 -19 -13 -47 0 -55 15 -9 12 -42 -3 -48 -18 -7 -31 2 -46 30
-9 18 -9 29 4 52 8 17 15 44 15 61 0 16 4 30 8 30 5 0 16 6 26 13 18 13 18 15
1 41 -17 26 -17 75 0 119 6 14 2 17 -24 17 -33 0 -44 25 -17 36 25 10 96 137
96 173 0 24 9 42 34 67 39 39 77 46 73 13 -1 -12 6 -26 16 -33 32 -21 140 55
114 80 -3 3 -19 -2 -37 -11 -46 -24 -51 -8 -8 26 33 27 36 33 28 55 -6 14 -10
27 -10 30 0 5 40 21 77 30 22 6 24 4 18 -15 -9 -29 1 -26 45 12 20 17 50 39
67 48 19 11 32 27 36 45 3 16 4 30 3 31 -1 1 -28 -19 -60 -44 -51 -41 -58 -44
-51 -22 4 13 18 38 30 54 41 54 74 130 64 146 -5 8 -9 31 -9 52 0 32 -3 37
-23 37 -42 0 -65 90 -28 109 10 6 23 30 30 55 15 62 15 71 -5 55 -15 -12 -16
-10 -11 16 19 94 19 105 3 111 -23 9 -20 26 19 104 38 76 44 110 19 110 -23 0
-12 49 27 125 25 47 30 67 26 100 -4 26 -1 47 9 59 21 30 17 41 -19 54 -42 15
-62 64 -52 128 7 50 -2 55 -43 23 -26 -20 -26 -20 -42 0 -8 10 -24 21 -35 23
-12 2 -21 13 -23 26 -5 36 -19 25 -26 -20z"/>
<path d="M5416 6590 c-326 -52 -623 -224 -832 -484 -367 -455 -402 -1047 -91
-1511 167 -248 433 -474 679 -576 195 -80 429 -108 633 -75 105 18 301 79 379
118 l46 24 -44 43 -44 43 -108 -35 c-200 -65 -353 -85 -499 -67 -132 16 -198
35 -310 90 -250 122 -429 342 -501 615 -23 85 -27 122 -27 245 -1 210 35 356
138 565 138 278 398 535 656 646 160 69 232 84 414 84 179 0 250 -15 391 -80
162 -74 339 -231 424 -373 125 -211 140 -472 48 -815 l-21 -78 36 -37 c24 -23
40 -33 46 -27 6 6 80 156 166 334 l157 323 -24 16 c-46 31 -108 103 -244 283
-225 300 -402 460 -642 582 -212 108 -365 146 -602 152 -91 2 -191 0 -224 -5z
m342 -115 c1 -1 -39 -5 -90 -8 -183 -11 -376 -80 -535 -189 -96 -66 -254 -216
-340 -323 -297 -370 -375 -810 -219 -1240 21 -60 22 -66 6 -45 -63 82 -146
298 -171 444 -19 111 -6 332 25 444 98 353 336 645 656 807 133 67 268 104
435 119 38 3 227 -4 233 -9z"/>
<path d="M11340 5889 c0 -5 5 -7 10 -4 6 3 10 8 10 11 0 2 -4 4 -10 4 -5 0
-10 -5 -10 -11z"/>
<path d="M6736 4584 l-25 -37 35 -32 c19 -18 43 -54 55 -80 18 -41 19 -53 9
-93 -6 -25 -18 -59 -27 -76 -40 -77 -502 -775 -538 -812 -59 -61 -105 -72
-191 -46 -63 19 -69 20 -80 4 -20 -27 -38 -62 -33 -65 17 -15 718 -467 730
-472 12 -4 23 5 39 30 l23 37 -36 36 c-93 97 -109 164 -63 264 14 29 114 190
223 358 l199 305 95 52 c149 83 234 116 306 117 52 1 65 -3 87 -23 48 -45 29
-88 -103 -226 -85 -89 -107 -138 -96 -207 9 -50 57 -105 114 -131 86 -38 178
3 253 113 113 167 102 397 -24 505 -72 61 -122 80 -213 79 -82 -1 -152 -21
-254 -74 -26 -13 -40 -16 -35 -8 4 7 39 60 76 117 38 57 65 108 61 112 -4 4
-133 71 -285 149 l-277 141 -25 -37z m281 -217 l82 -42 -341 -524 c-313 -481
-341 -528 -341 -567 l0 -42 -76 50 c-101 67 -99 65 -59 81 39 17 14 -20 383
547 130 201 246 383 257 404 19 38 20 74 3 119 -10 24 -1 22 92 -26z m598
-576 c-19 -58 -75 -140 -107 -157 -29 -15 -58 -1 -58 27 0 13 35 58 85 111 47
50 86 96 86 102 1 6 4 1 6 -12 2 -12 -3 -44 -12 -71z"/>
<path d="M14825 3883 c-544 -119 -992 -218 -994 -219 -2 -2 1 -25 5 -51 l9
-48 96 -6 c179 -10 266 -78 319 -248 16 -53 102 -429 191 -836 181 -832 191
-895 149 -993 -28 -66 -117 -149 -193 -183 -60 -26 -63 -31 -46 -92 8 -29 14
-37 27 -33 9 3 284 64 610 135 326 71 595 131 598 134 3 3 2 26 -1 51 l-7 46
-92 0 c-227 1 -344 70 -399 237 -24 75 -202 872 -195 877 2 2 65 15 140 31
149 29 276 35 345 16 105 -29 183 -112 265 -279 l50 -104 47 7 c25 4 47 8 49
9 3 4 -213 995 -219 1000 -2 2 -25 0 -50 -6 l-46 -11 -6 -91 c-14 -261 -133
-352 -588 -450 -18 -4 -15 -15 -120 471 -47 220 -51 303 -15 380 43 91 145
147 351 193 119 26 292 32 375 12 30 -8 93 -32 140 -55 69 -34 101 -58 170
-127 48 -49 109 -123 140 -173 l55 -88 45 7 c25 3 48 8 52 10 3 2 -45 159
-109 349 -104 314 -117 345 -136 344 -12 0 -467 -98 -1012 -216z m900 25 c9
-24 20 -49 22 -56 3 -8 -16 0 -43 16 -27 16 -66 36 -87 43 l-39 14 49 11 c77
18 79 18 98 -28z m-1157 -239 c-67 -82 -70 -89 -65 -159 5 -62 379 -1799 411
-1906 17 -55 41 -81 101 -112 l40 -20 -40 -10 c-22 -6 -96 -22 -165 -37 -69
-14 -134 -29 -145 -32 -15 -5 -13 2 13 32 38 43 52 74 52 117 0 34 -393 1847
-417 1923 -21 67 -36 82 -116 120 l-67 31 207 46 c115 25 212 46 216 47 5 1
-6 -17 -25 -40z m926 -816 c4 -21 9 -46 12 -56 5 -17 4 -17 -23 -4 -15 8 -41
17 -58 21 l-29 7 39 34 c22 19 43 34 46 35 4 0 10 -17 13 -37z"/>
<path d="M11318 3773 l-286 -3 -4 -44 c-3 -44 -3 -44 37 -56 62 -18 115 -57
132 -98 11 -24 16 -66 15 -122 -1 -105 -177 -1892 -192 -1940 -25 -86 -67
-122 -162 -140 -58 -11 -68 -21 -68 -67 0 -26 4 -32 28 -37 50 -9 811 -80 815
-76 2 3 7 24 10 47 l5 42 -49 16 c-61 20 -107 58 -125 102 -8 18 -14 65 -14
105 0 69 16 269 25 314 4 18 142 122 150 112 15 -18 280 -480 291 -509 37 -91
1 -136 -113 -146 l-72 -6 -6 -39 c-4 -22 -3 -43 1 -47 9 -8 984 -105 989 -99
2 2 6 24 10 50 7 46 6 48 -16 48 -39 0 -124 45 -175 92 -68 62 -108 123 -352
529 l-220 367 172 118 c255 176 374 234 515 250 63 7 71 15 71 74 l0 26 -372
36 c-205 20 -374 35 -375 34 -2 -1 -6 -23 -9 -48 l-6 -46 55 -12 c63 -13 116
-45 128 -76 11 -31 -25 -97 -74 -136 -50 -40 -571 -407 -574 -404 -1 1 36 391
82 866 47 476 86 879 87 895 3 28 1 30 -32 30 -19 1 -164 -1 -322 -2z m152
-116 c0 -2 -47 -487 -105 -1078 -59 -591 -107 -1097 -108 -1125 -1 -35 5 -60
17 -79 l18 -28 -58 7 c-33 4 -81 9 -107 12 l-48 6 25 24 c13 14 27 39 30 57
15 84 206 2095 201 2117 -4 14 -20 40 -38 58 l-31 32 102 0 c56 0 102 -2 102
-3z m870 -1091 c0 -7 -80 -56 -80 -49 0 5 -3 18 -6 31 -6 20 -3 22 40 22 25 0
46 -2 46 -4z m-415 -694 c227 -388 296 -499 345 -560 50 -62 51 -64 23 -59
-15 3 -59 8 -98 12 -38 3 -88 8 -110 11 l-41 6 4 61 c5 86 -12 127 -177 406
-78 132 -141 243 -141 247 1 9 70 63 80 63 3 0 54 -84 115 -187z"/>
<path d="M8100 3679 c-293 -76 -521 -309 -612 -625 -19 -66 -23 -102 -22 -214
0 -120 3 -144 28 -215 77 -224 245 -392 488 -485 214 -83 434 -83 693 -2 l90
28 -2 44 c-3 71 -1 71 -115 38 -121 -35 -289 -48 -379 -29 -123 26 -249 112
-307 209 -59 102 -77 260 -48 414 13 67 65 225 85 256 6 10 131 -44 506 -217
363 -168 501 -227 507 -218 15 23 57 162 67 221 37 205 -21 392 -168 549 -119
127 -279 219 -440 253 -97 20 -279 17 -371 -7z m-108 -206 c-95 -96 -162 -200
-219 -338 -104 -256 -109 -492 -13 -690 l38 -80 -53 57 c-188 202 -219 498
-81 766 80 153 195 268 341 338 38 19 70 34 71 34 1 0 -37 -39 -84 -87z m590
59 c164 -72 216 -243 140 -462 -55 -159 -10 -159 -359 3 -167 77 -303 143
-303 148 0 4 27 48 60 97 83 124 172 201 270 233 40 13 142 3 192 -19z m328
-377 c6 -39 9 -95 5 -125 -7 -63 -33 -172 -43 -182 -9 -9 -92 28 -92 40 0 5
11 34 25 65 38 86 57 174 59 265 l1 84 17 -39 c9 -21 22 -70 28 -108z"/>
<path d="M16932 3545 c-200 -44 -409 -191 -482 -339 -70 -142 -40 -288 70
-343 57 -29 92 -29 157 2 94 43 112 107 73 255 -37 142 -20 215 60 257 84 45
174 23 245 -59 33 -38 165 -290 165 -314 0 -5 -39 -29 -87 -53 -213 -109 -410
-267 -497 -400 -66 -100 -89 -170 -89 -271 0 -133 46 -236 142 -323 132 -118
327 -126 539 -21 75 37 110 62 176 127 45 45 95 104 111 130 l28 49 26 -61
c14 -34 29 -63 33 -64 14 -4 578 239 578 249 0 6 -7 27 -15 47 -14 35 -14 35
-57 25 -54 -12 -120 -5 -153 16 -45 29 -88 113 -214 411 -166 390 -199 453
-286 541 -75 76 -139 113 -240 139 -72 18 -198 18 -283 0z m246 -136 c128 -63
192 -169 390 -639 164 -387 158 -375 197 -407 l34 -28 -70 -29 c-40 -16 -74
-25 -78 -20 -5 5 -86 194 -181 419 -198 470 -272 623 -333 689 -24 25 -38 46
-32 46 7 0 39 -14 73 -31z m-593 -261 c1 -46 3 -105 5 -133 5 -46 3 -50 -17
-53 -58 -8 -71 134 -20 221 16 26 29 47 30 47 1 0 2 -37 2 -82z m776 -475 c50
-120 100 -237 110 -260 l18 -43 -50 -75 c-95 -141 -200 -197 -314 -165 -92 26
-174 134 -190 250 -15 110 45 257 149 364 56 57 162 144 178 145 3 1 48 -97
99 -216z m-556 -106 c-81 -144 -66 -338 35 -466 44 -55 85 -83 162 -111 l53
-19 -77 0 c-105 -1 -171 24 -230 87 -127 135 -115 342 28 501 25 28 47 51 49
51 2 0 -7 -19 -20 -43z"/>
<path d="M9790 3085 c-382 -82 -660 -439 -660 -850 0 -348 200 -610 549 -719
246 -77 467 -54 749 79 l112 54 -16 43 c-10 24 -20 46 -24 51 -3 4 -51 -13
-107 -38 -131 -59 -235 -85 -337 -85 -292 1 -476 203 -476 525 0 90 20 238 39
288 l9 24 515 -143 c283 -78 523 -144 533 -146 15 -2 21 8 31 62 7 36 13 117
14 180 1 98 -3 127 -25 195 -33 102 -71 168 -142 244 -179 194 -498 292 -764
236z m393 -135 c112 -53 170 -156 170 -300 -1 -81 -26 -236 -42 -252 -7 -8
-634 162 -647 175 -4 3 18 58 49 120 79 160 157 242 267 278 41 14 153 2 203
-21z m-578 -71 c-87 -96 -153 -227 -201 -401 -21 -76 -27 -122 -31 -249 -5
-136 -3 -166 16 -240 24 -98 65 -185 118 -254 l37 -49 -34 24 c-105 74 -195
198 -237 324 -22 69 -27 99 -27 201 -1 216 70 396 214 545 53 54 162 140 179
140 2 0 -13 -18 -34 -41z m880 -159 c42 -83 58 -171 51 -284 -3 -54 -7 -100
-9 -103 -7 -7 -97 21 -97 30 0 5 7 37 16 71 18 66 24 237 11 299 -4 20 -6 37
-3 37 3 0 17 -22 31 -50z"/>
</g>
</svg>
